<?xml version="1.0" encoding="UTF-8" standalone="no"?>
<!-- Created with Inkscape (http://www.inkscape.org/) -->

<svg
   xmlns:dc="http://purl.org/dc/elements/1.1/"
   xmlns:cc="http://creativecommons.org/ns#"
   xmlns:rdf="http://www.w3.org/1999/02/22-rdf-syntax-ns#"
   xmlns:svg="http://www.w3.org/2000/svg"
   xmlns="http://www.w3.org/2000/svg"
   xmlns:sodipodi="http://sodipodi.sourceforge.net/DTD/sodipodi-0.dtd"
   xmlns:inkscape="http://www.inkscape.org/namespaces/inkscape"
   width="744.09448819"
   height="1052.3622047"
   id="svg2"
   version="1.1"
   inkscape:version="0.48.4 r9939"
   sodipodi:docname="telegnom.svg">
  <defs
     id="defs4">
    <inkscape:perspective
       sodipodi:type="inkscape:persp3d"
       inkscape:vp_x="0 : 526.18109 : 1"
       inkscape:vp_y="0 : 1000 : 0"
       inkscape:vp_z="744.09448 : 526.18109 : 1"
       inkscape:persp3d-origin="372.04724 : 350.78739 : 1"
       id="perspective3027" />
  </defs>
  <sodipodi:namedview
     id="base"
     pagecolor="#ffffff"
     bordercolor="#666666"
     borderopacity="1.0"
     inkscape:pageopacity="0.0"
     inkscape:pageshadow="2"
     inkscape:zoom="5.9051092"
     inkscape:cx="380.54774"
     inkscape:cy="511.89761"
     inkscape:document-units="px"
     inkscape:current-layer="layer5"
     showgrid="false"
     inkscape:window-width="1080"
     inkscape:window-height="1749"
     inkscape:window-x="-2"
     inkscape:window-y="32"
     inkscape:window-maximized="1"
     showguides="true"
     inkscape:guide-bbox="true" />
  <metadata
     id="metadata7">
    <rdf:RDF>
      <cc:Work
         rdf:about="">
        <dc:format>image/svg+xml</dc:format>
        <dc:type
           rdf:resource="http://purl.org/dc/dcmitype/StillImage" />
        <dc:title />
      </cc:Work>
    </rdf:RDF>
  </metadata>
  <g
     inkscape:label="orig"
     inkscape:groupmode="layer"
     id="layer1"
     style="display:inline"
     sodipodi:insensitive="true">
    <g
       id="g3072"
       transform="translate(-2.0109903,-38.208816)"
       inkscape:export-filename="/home/cprause/maxbrau/text3082.png"
       inkscape:export-xdpi="90"
       inkscape:export-ydpi="90">
      <path
         sodipodi:nodetypes="cssssssssscssssscsssssssssssssssssscsssssssssssssssssssssssssssssssscsssssssssssccccsscssssscssssccsssssssssssss"
         style="fill:#e6d2ab"
         d="m 390.33295,656.30721 c -8.03081,0.50711 -6.7555,26.92688 -4.79931,44.14783 0.59349,5.22472 -5.03025,19.27603 -8.97135,20.91777 -7.89323,3.2881 -46.78874,0.2408 -50.19105,-6.19035 -1.12406,-2.12473 -6.49903,-12.64814 -6.00219,-15.14096 0.151,-0.75761 1.43322,-1.86836 1.55419,-3.6156 0.30624,-4.42349 3.16518,-7.26703 7.30639,-7.26703 4.02186,0 9.90192,-2.82903 14.77737,-7.10973 2.93078,-2.57327 3.5278,-3.77311 3.5278,-7.08995 0,-4.24842 -2.60773,-14.50804 -4.19055,-16.48693 -0.95427,-1.19304 -4.73892,-15.51336 -4.83997,-18.31339 -0.0298,-0.825 -1.67547,-2.5352 -3.65711,-3.80044 -3.44101,-2.19702 -3.77718,-2.23074 -7.47791,-0.75 -2.13121,0.85274 -5.93583,1.55044 -8.4547,1.55044 -3.87502,0 -5.10296,-0.5232 -7.97976,-3.4 -5.49429,-5.49429 -4.34525,-8.6 3.18179,-8.6 l 3.41821,0 0,-6.80887 c 0,-7.17956 -1.12829,-9.78379 -4.49239,-10.369 -1.09581,-0.19062 -2.59486,-1.60362 -3.33123,-3.13999 -0.73636,-1.53638 -2.3744,-3.18713 -3.64007,-3.66834 -2.98553,-1.13509 -5.66252,-4.97941 -9.00564,-12.93261 -5.29145,-12.58823 -3.15118,-25.66073 4.82058,-29.44358 1.89805,-0.90069 4.14394,-1.63761 4.99086,-1.63761 0.84692,0 1.84574,-0.49492 2.21959,-1.09983 1.64063,-2.65459 13.3776,-9.07776 21.05848,-11.52445 7.91266,-2.52051 10.6739,-4.37572 6.51271,-4.37572 -3.75651,0 -10.13289,-12.66464 -10.13289,-20.12573 0,-3.99298 2.64942,-7.87427 5.3751,-7.87427 0.7563,0 2.0381,-1.36896 2.84844,-3.04213 1.65374,-3.4146 0.91297,-9.48881 -3.23018,-26.48686 -1.4653,-6.01167 -2.28453,-12.92955 -2.48343,-20.97101 -0.16325,-6.6 -0.78939,-13.55326 -1.39141,-15.45168 -0.60203,-1.89843 -1.78985,-10.4109 -2.6396,-18.91662 -1.78131,-17.83022 -4.8816,-38.75257 -6.63922,-44.80498 -0.97512,-3.35782 -0.95623,-4.48138 0.0966,-5.75 1.86584,-2.2482 5.51082,-1.95081 9.87777,0.80593 5.25354,3.31641 19.74211,20.46109 25.7101,30.42339 2.73669,4.56832 7.76915,11.85519 11.18325,16.19304 3.4141,4.33785 8.54143,11.62513 11.39408,16.19396 2.85265,4.56883 7.60912,10.55696 10.56995,13.30696 2.96082,2.75 6.83349,7.32338 8.60592,10.16306 5.47906,8.77822 14.95614,19.68767 20.8718,24.0264 4.98514,3.65625 5.76797,4.71148 6.65959,8.97691 0.55571,2.6585 0.76905,8.048 0.47408,11.97667 -0.60873,8.10782 1.4391,16.37369 5.37871,21.71056 1.27744,1.73052 3.00722,4.6089 3.84394,6.3964 0.83673,1.7875 2.21823,3.25 3.07,3.25 2.72818,0 11.31063,3.15789 12.50998,4.60302 1.75745,2.11756 2.91453,1.67965 2.91453,-1.10302 0,-1.375 -0.35364,-2.5 -0.78586,-2.5 -1.70934,0 -12.21414,-14.08252 -12.21414,-16.37403 0,-1.61377 -1.45521,-3.57748 -4.5,-6.07246 -4.1746,-3.42077 -4.5,-4.02804 -4.5,-8.39795 0,-2.68619 -0.68296,-5.6856 -1.58919,-6.97943 -2.52653,-3.60713 -1.20907,-4.81816 6.05077,-5.56195 5.74049,-0.58813 7.02297,-0.40534 9.4922,1.35291 1.80113,1.28251 4.43478,2.03291 7.13487,2.03291 5.38557,0 11.93539,3.12441 15.81662,7.54489 3.18319,3.62545 8.09473,17.31579 8.09473,22.5631 0,2.04592 0.93701,3.86431 2.93636,5.69838 1.61499,1.4815 3.42648,3.81863 4.02553,5.19363 0.59904,1.375 2.11036,3.89206 3.35849,5.59347 1.80691,2.46312 2.53185,5.51963 3.55767,15 1.23442,11.4082 1.19626,12.19944 -0.9118,18.90505 -1.68143,5.34857 -3.23475,8.03314 -6.58865,11.38704 -4.32864,4.32864 -4.46023,4.38009 -9.64406,3.77083 -2.89055,-0.33972 -8.141,-1.74848 -11.66767,-3.13058 -3.52667,-1.38209 -6.55802,-2.36699 -6.73635,-2.18867 -0.17832,0.17832 0.16473,2.96917 0.76233,6.20187 1.21879,6.59308 0.43847,15.88073 -1.60208,19.06841 -0.80847,1.26297 -1.27705,4.46859 -1.1694,8 0.20944,6.87046 -2.06224,10.942 -8.30312,14.88169 -3.63689,2.29587 -3.8099,2.66632 -4.97894,10.66146 -0.66612,4.55561 -1.78655,9.4229 -2.48986,10.81618 -1.83302,3.63132 -3.86059,15.47441 -3.07372,17.95363 0.36685,1.15586 1.92624,2.75273 3.46531,3.54861 1.53907,0.79589 5.16604,3.46812 8.05994,5.93831 2.89389,2.47019 6.66527,4.78325 8.38082,5.14014 5.11803,1.0647 7.6192,3.16811 7.6192,6.40752 0,2.09112 0.84393,3.50978 3.00203,5.04649 -1.2869,14.42851 -3.27474,12.40017 -7.20793,15.42673 -11.17571,8.51608 -47.11353,0.48646 -48.12486,2.92802 -33.87136,-0.3151 -6.04135,-67.34539 -16.87109,-67.20786 z m 2.55119,-99.68037 c -0.79323,-2.06711 -1.34934,-1.82352 -1.34934,0.59105 0,1.13246 0.43035,1.79305 0.95633,1.46797 0.52598,-0.32507 0.70283,-1.25163 0.39301,-2.05902 z m -11.708,-4.97569 c 0.7955,-2.07306 -2.40321,-6.6853 -4.3716,-6.30345 -2.45905,0.47704 -2.53436,2.20504 -0.22412,5.14204 2.37252,3.01617 3.75036,3.36437 4.59572,1.16141 z m 28.78338,-0.40909 c 1.37571,-1.52015 1.50651,-2.34316 0.63207,-3.97708 -1.82348,-3.40719 -4.27003,-4.16161 -6.81442,-2.10129 -2.52274,2.04279 -2.94252,3.99518 -0.859,3.99518 0.76085,0 1.61872,0.9 1.90638,2 0.66095,2.52749 2.89022,2.5636 5.13497,0.0832 z m 13.15425,-0.21096 c 0.9765,-1.58001 -2.63175,-2.17003 -5.39274,-0.88182 -2.49863,1.16581 -2.54767,1.30385 -0.7022,1.97664 2.21261,0.80664 5.25784,0.25963 6.09494,-1.09482 z m 6.42103,-4.87223 c 0,-3.90476 -0.0833,-4 -3.5,-4 -3.85648,0 -3.99539,0.28049 -2.40217,4.85078 0.82048,2.35363 1.70469,3.14922 3.5,3.14922 2.13587,0 2.40217,-0.44344 2.40217,-4 z m -43,-19.5 c 0,-1.68305 -0.18315,-1.75069 -2.41821,-0.89301 -2.2344,0.85742 -1.96604,2.39301 0.41821,2.39301 1.11111,0 2,-0.66667 2,-1.5 z"
         id="path3064"
         inkscape:connector-curvature="0" />
      <path
         sodipodi:nodetypes="sssssssscssscsssssssssssssssssssssssssssssscsssccsssssssssscscsssssssssscssssssssssssssssssssssscscssssssssssssssssssscsssssssssssssscssssssssssssscssssssssccsssssssscsssssscssscsssscsssssssccscc"
         style="fill:#c3996a"
         d="m 383.87315,701.18024 c -6.57365,15.18022 -4.25582,16.56175 -9.30425,19.14511 -1.27732,0.65362 -34.45023,-2.38577 -43.74159,-4.45818 -1.36076,-0.30352 -6.81048,-5.16536 -8.91595,-15.49773 -0.22768,-1.1173 1.62344,-2.59616 1.62344,-4.19329 0,-3.44037 3.11011,-6.01728 7.26234,-6.01728 1.54954,0 4.53932,-0.87849 6.64397,-1.9522 9.97576,-5.08925 13.39642,-11.2777 10.62772,-19.22699 -0.82771,-2.37644 -1.51147,-5.08259 -1.51948,-6.01365 -0.008,-0.93106 -0.84951,-3.18106 -1.87002,-5 -1.58388,-2.8231 -2.8939,-7.66045 -4.70313,-17.36669 -0.21114,-1.13274 -2.19937,-3.51849 -4.41829,-5.30166 l -4.0344,-3.24213 -5.93306,2.1633 c -5.84943,2.13281 -5.98601,2.13706 -9.6899,0.30166 -4.90102,-2.42863 -5.2527,-3.97267 -1.083,-4.75491 5.86314,-1.09993 6.78164,-2.39988 5.5821,-7.90029 -1.39691,-6.40537 -0.73708,-8.06097 2.60566,-6.53792 1.39587,0.636 2.79222,0.90208 3.103,0.5913 0.31078,-0.31078 0.64638,-3.42138 0.74577,-6.91244 0.17693,-6.21437 0.12833,-6.34196 -2.31928,-6.08891 -1.375,0.14216 -3.20774,1.10601 -4.07276,2.1419 -2.23898,2.68125 -8.03266,2.2726 -9.49973,-0.67005 -0.60605,-1.21562 -2.63767,-3.22724 -4.51471,-4.47027 -4.78296,-3.16741 -10.00908,-14.09043 -10.66779,-22.29653 -0.81105,-10.1039 3.52748,-18.46352 9.5823,-18.46352 1.04373,0 3.60515,-1.35693 5.69207,-3.0154 6.11137,-4.85671 9.87389,-6.89738 17.4986,-9.49071 6.86406,-2.33462 7.27963,-2.36583 9.55397,-0.71734 1.30777,0.9479 2.65746,2.55209 2.99931,3.56487 0.4085,1.21023 1.27405,1.67079 2.52514,1.34362 2.32096,-0.60694 2.39027,0.28934 0.30809,3.98392 -2.22104,3.94096 -0.5646,7.94837 4.08915,9.89283 1.9285,0.80578 3.50636,2.0338 3.50636,2.72895 0,0.69514 1.2375,2.39523 2.75,3.77798 1.5125,1.38275 3.3125,3.39546 4,4.47268 1.1367,1.78107 1.35585,1.81106 2.4178,0.33081 1.04475,-1.45628 1.67692,-1.26201 6,1.84381 4.30146,3.09029 4.8322,3.25507 4.8322,1.50023 0,-1.08425 0.63087,-2.49493 1.40193,-3.13486 1.1342,-0.9413 2.02315,-0.20477 4.65495,3.85678 2.92779,4.51836 3.38061,4.84739 4.52915,3.29105 1.17497,-1.59214 1.34905,-1.53397 2.1959,0.73373 l 0.91977,2.46295 1.18433,-2.21295 c 1.56795,-2.92974 4.61692,-2.80091 7.74508,0.32725 1.64434,1.64434 3.18917,2.33423 4.38033,1.95617 1.16926,-0.37111 2.22067,0.0699 2.88393,1.2098 0.97818,1.68103 1.04572,1.68379 1.07422,0.0438 0.0373,-2.14362 0.71615,-2.20711 2.67327,-0.25 2.06596,2.06596 4.08472,1.87755 5.35714,-0.5 1.31206,-2.45161 3.7198,-2.56355 6.23231,-0.28976 1.56811,1.41912 2.03502,1.47524 2.74299,0.32972 0.46926,-0.75928 2.55052,-3.33263 4.62501,-5.71857 2.66298,-3.06276 4.29859,-4.17087 5.56372,-3.76933 2.36653,0.75111 5.42482,-4.25461 6.87899,-11.25931 0.60035,-2.89183 1.51126,-5.51728 2.02426,-5.83433 1.43321,-0.88578 1.10652,-6.26353 -0.53246,-8.76494 -0.80585,-1.22988 -1.59335,-3.80155 -1.75,-5.71482 -0.28128,-3.43539 -0.23704,-3.47714 3.55698,-3.35646 2.51928,0.0801 5.3199,1.16407 8.13558,3.14875 l 4.2938,3.02655 0.57499,-3.54324 c 0.53067,-3.27015 0.077,-4.09962 -5.88559,-10.7618 -6.87308,-7.67946 -7.65342,-9.73057 -4.46058,-11.72453 2.37017,-1.4802 2.68503,-3.24478 0.42417,-2.3772 -2.12587,0.81577 -9.84604,-3.82646 -11.16022,-6.71078 -0.58075,-1.27459 -0.82541,-3.52317 -0.5437,-4.99685 0.30473,-1.59409 -0.1593,-3.70423 -1.14559,-5.20949 -0.91178,-1.39156 -1.42377,-2.90874 -1.13776,-3.37152 1.22277,-1.97848 8.75109,0.84795 15.41305,5.78667 4.34066,3.21787 8.96308,5.69459 12.19056,6.53179 5.9437,1.54178 6.92283,2.63404 6.94418,7.74654 0.008,2.01691 0.89932,5.72941 1.97977,8.25 1.56002,3.63938 2.46247,4.58291 4.38337,4.58291 1.57302,0 2.6007,0.69519 2.93877,1.98796 0.28593,1.09338 1.71018,2.44051 3.165,2.99364 1.45483,0.55312 3.31797,2.47104 4.14032,4.26204 0.82235,1.791 2.55894,4.72362 3.8591,6.51694 1.91727,2.64451 2.50001,5.07578 3.0842,12.86776 0.39615,5.28396 0.47134,12.01916 0.16708,14.96711 -0.69156,6.70064 -4.67913,14.17078 -9.22544,17.28257 -4.12449,2.82306 -8.10531,2.50811 -17.72999,-1.40275 -8.71413,-3.54086 -9.12053,-3.42872 -8.24376,2.27473 1.14444,7.44467 0.59539,18.45073 -1.04535,20.95481 -0.90118,1.37538 -1.45776,4.71889 -1.45776,8.75713 0,6.08795 -0.24337,6.80168 -3.57779,10.49248 -1.96778,2.1781 -4.43274,4.23153 -5.47769,4.56319 -2.01365,0.63911 -3.3366,4.46014 -4.49487,12.98239 -0.37375,2.75 -1.24629,6.35 -1.93898,8 -2.14614,5.11223 -3.51067,11.05513 -3.51067,15.28999 0,3.24925 0.54803,4.47792 2.75,6.16544 1.5125,1.15913 5.84472,4.56836 9.62715,7.57606 3.78244,3.0077 7.74952,5.46854 8.81575,5.46854 3.29746,0 5.8071,1.93984 5.8071,4.48862 0,1.52558 3.21538,3.46941 1.84886,7.07032 -1.42921,3.76609 -3.30989,7.72282 -6.20907,11.76198 l -35.92022,-0.15336 c -7.17882,-0.0306 7.21008,5.22611 -9.14672,3.99327 -9.72289,-2.14564 -10.06888,-5.26616 -16.04073,-12.27119 -3.62182,-4.24843 1.58237,-26.97681 2.03552,-45.05635 0.2038,-8.1311 -1.66982,-11.37544 -3.7291,-11.32485 -2.67625,0.0658 -8.98415,11.42301 -9.67109,24.37195 -0.39484,7.44282 4.30422,20.52385 3.1709,23.14098 z M 362.6893,560.6069 c 0.19002,-0.98026 0.95098,-1.98391 1.691,-2.23033 0.86063,-0.28658 1.221,0.19425 1,1.33427 -0.19002,0.98026 -0.95098,1.98391 -1.691,2.23033 -0.86063,0.28658 -1.221,-0.19425 -1,-1.33427 z m 23.60654,-17.01051 c -0.40642,-0.41182 -2.39446,-1.01786 -4.41787,-1.34676 -4.9439,-0.8036 -5.18473,-2.39161 -0.60778,-4.00757 2.07054,-0.73103 4.43961,-1.89454 5.26461,-2.58558 0.825,-0.69104 3.053,-2.04405 4.9511,-3.0067 1.89811,-0.96264 4.10664,-2.40579 4.90784,-3.20699 0.95451,-0.95451 2.35039,-1.22545 4.04889,-0.78588 5.48109,1.4185 18.10229,1.73845 19.59835,0.49683 2.156,-1.78932 4.79402,-0.51609 3.58946,1.73244 -0.5223,0.97498 -1.15529,2.44769 -1.40665,3.27269 -0.25135,0.825 -3.24885,2.59598 -6.66112,3.93551 -5.04282,1.97962 -6.55946,2.2136 -8.10243,1.25 -3.2304,-2.01742 -7.62653,-1.42058 -10.23182,1.3891 -2.38368,2.57069 -9.4061,4.40965 -10.93258,2.86291 z m -21.51104,-2.68427 c -3.82949,-1.22846 -4.25798,-3.46216 -0.82924,-4.32272 1.65527,-0.41544 3.38206,0.10315 5.46073,1.63998 4.81508,3.55994 2.42274,4.94568 -4.63149,2.68274 z m -32.73307,-9.14216 c -3.06317,-4.01603 -4.51947,-12.69818 -2.53167,-15.09333 0.72992,-0.8795 2.89025,-1.51776 5.13718,-1.51776 4.1777,0 4.775,-0.62329 2.31856,-2.41948 -1.25808,-0.91994 -1.35122,-1.68646 -0.48253,-3.97128 1.13494,-2.98512 0.41217,-8.05971 -3.89522,-27.34865 -1.3426,-6.01228 -2.06703,-12.82322 -2.07407,-19.5 -0.006,-5.98798 -0.60455,-12.21706 -1.43665,-14.95901 -0.7842,-2.58413 -1.92816,-10.23413 -2.54213,-17 -1.54702,-17.04802 -4.85607,-40.33193 -6.56697,-46.20807 -1.50031,-5.15288 -0.77751,-7.59351 2.24884,-7.59351 2.29274,0 10.02447,5.73821 13.0482,9.6839 1.51774,1.98052 4.94132,6.06553 7.60795,9.07779 2.66663,3.01227 5.36663,6.6675 6,8.12275 1.87039,4.29748 12.61964,20.17281 17.71021,26.15582 5.34286,6.27952 11.9986,16.26947 13.90369,20.86877 0.70418,1.70003 1.88507,3.09097 2.6242,3.09097 2.16616,0 8.36795,5.99043 10.47239,10.11548 2.35323,4.6127 2.37129,4.88452 0.32451,4.88452 -1.62311,0 -1.60196,2.22427 0.0585,6.15505 0.53735,1.27204 -0.009,1.81053 -2.35994,2.32694 -4.17627,0.91726 -4.82626,2.44137 -1.97584,4.63299 2.57632,1.98087 7.47452,2.43568 9.87626,0.91704 1.24328,-0.78614 1.04312,-1.3959 -1.24071,-3.7797 -2.58848,-2.7018 -2.63706,-2.92868 -0.98243,-4.58836 1.65551,-1.66056 2.08328,-1.38918 8.7407,5.54502 3.85,4.01006 8.67199,8.53533 10.71553,10.05615 4.59227,3.4176 6.20295,8.53728 5.20323,16.53881 -0.99896,7.99538 -2.82099,11.84864 -5.87912,12.43323 -1.39539,0.26675 -5.86794,0.29314 -9.939,0.0587 -4.61222,-0.26566 -7.65007,-0.0249 -8.0603,0.63892 -0.36211,0.58589 -2.75252,1.06526 -5.31202,1.06526 -3.3747,0 -6.86252,1.07475 -12.69098,3.91065 -14.86879,7.23456 -18.0227,8.51034 -21.53734,8.71208 -1.925,0.11049 -4.79623,0.52927 -6.38051,0.93061 -3.74942,0.94983 -3.19301,-1.2956 0.88051,-3.55334 1.57416,-0.87247 3.03433,-2.103 3.24483,-2.7345 0.49886,-1.49657 -4.69693,-4.03512 -7.1388,-3.48787 -1.69664,0.38025 -1.82564,-0.003 -1.23818,-3.67658 l 0.65583,-4.1011 -3.49277,0 c -2.90514,0 -3.59988,0.4268 -4.12946,2.53679 -0.35018,1.39524 -0.37444,3.84807 -0.0539,5.45075 0.73204,3.66023 -0.98551,8.74836 -3.38695,10.03357 -2.55758,1.36877 -2.56335,1.36622 -5.44363,-2.41002 z m 67.90022,-18.52462 2.77076,-2.89204 -4.43181,-2.59722 c -5.7446,-3.36655 -9.50733,-3.43656 -10.32166,-0.19204 -0.33201,1.32284 -1.69058,3.42629 -3.01905,4.67431 -1.32846,1.24803 -2.41097,2.52821 -2.40557,2.84483 0.005,0.31663 3.30085,0.68336 7.3232,0.81495 6.90432,0.22588 7.46836,0.0775 10.08413,-2.65279 z m 17.0884,-5.08034 c -2.10177,-2.32243 -3.50555,-2.5863 -3.50555,-0.65894 0,1.29085 4.06031,3.80008 4.91054,3.03466 0.22579,-0.20328 -0.40645,-1.27235 -1.40499,-2.37572 z m -46.3108,-19.97425 c 3.86546,0.31776 4.55175,0.0455 5.09189,-2.01999 0.7217,-2.75978 -2.94529,-7.20339 -5.625,-6.81632 -2.22839,0.32188 -6.61642,6.97637 -6.64519,10.07748 -0.0153,1.65087 0.15202,1.66267 2.4283,0.1712 1.34461,-0.88103 3.48211,-1.51659 4.75,-1.41237 z m 76.83421,17.00718 c -0.80907,-0.51167 -1.16598,-1.23537 -0.79313,-1.60823 0.9151,-0.91509 3.76417,0.24885 3.76417,1.53779 0,1.2701 -1.03529,1.29465 -2.97104,0.0704 z"
         id="path3062"
         inkscape:connector-curvature="0" />
      <path
         sodipodi:nodetypes="cssssssscsssssscscsssssssssssscssssssssssssssscsssssssssssscccccsssccscsssssscsssssssssssssssssssscsssssscsssssssssscsssccsscssssscssssssssssssssssssssssssss"
         style="fill:#bf4941"
         d="m 342.1542,647.22216 c -2.15612,-8.76601 -2.3992,-9.19942 -7.67303,-13.68057 -2.9955,-2.54527 -5.59624,-5.02223 -5.77941,-5.50436 -0.18317,-0.48214 0.34764,-2.7895 1.17958,-5.12749 0.83195,-2.33798 1.75193,-7.28349 2.04441,-10.99003 0.47135,-5.97344 0.27716,-7.03516 -1.70911,-9.34433 -2.04235,-2.37438 -2.66535,-2.54153 -7.0322,-1.88668 -2.79531,0.41918 -6.00872,1.74288 -7.71362,3.17746 l -2.92231,2.45896 -0.92653,-2.43696 c -0.50959,-1.34032 -2.56053,-3.40103 -4.55763,-4.57936 -7.23447,-4.26844 -12.32679,-20.65917 -9.52617,-30.66201 1.30664,-4.66686 4.89336,-8.48792 7.96737,-8.48792 0.93557,0 3.79089,-1.6282 6.34517,-3.61821 2.55427,-1.99002 8.81562,-5.31634 13.91411,-7.39183 l 9.26997,-3.77361 2.24503,2.64183 c 1.23477,1.453 2.24727,3.43543 2.25,4.40539 0.003,0.96996 0.42779,2.54496 0.94457,3.5 0.51678,0.95504 1.19485,2.95204 1.50684,4.43779 0.59313,2.82462 8.30542,10.76593 11.68669,12.03374 1.07828,0.4043 2.45054,2.14077 3.04945,3.85881 0.98909,2.83729 1.39394,3.07422 4.41533,2.58391 2.50494,-0.40649 4.23653,0.0778 7.01191,1.96127 3.65944,2.48336 4.49236,2.3271 5.68294,-1.06614 0.54925,-1.56541 2.63902,0.37301 4.64844,4.3118 3.28447,6.43809 4.61616,6.93661 8.49277,3.17925 2.79299,-2.70708 3.68379,-3.07135 5.34137,-2.18423 1.09415,0.58557 2.27277,1.80323 2.61916,2.7059 0.41642,1.08517 1.34076,1.45532 2.72819,1.0925 1.52522,-0.39886 2.24067,-0.005 2.61927,1.4431 0.36549,1.39763 1.00375,1.77679 2.13946,1.27098 0.89022,-0.39648 3.30608,-0.63606 5.36858,-0.5324 2.77552,0.13949 3.75,-0.2076 3.75,-1.33569 0,-1.81439 1.96854,-1.95125 5.42353,-0.37705 2.19257,0.999 2.7823,0.83761 4.56743,-1.25 1.12738,-1.31841 2.72717,-3.63461 3.55509,-5.14711 0.96294,-1.75917 2.32906,-2.75 3.79157,-2.75 3.08784,0 6.32422,-4.60414 8.14197,-11.58294 0.8101,-3.1102 1.87155,-6.16389 2.35877,-6.78598 2.14576,-2.73973 2.22869,-6.73038 0.19364,-9.31753 -2.4579,-3.12471 -2.79007,-9.31355 -0.49988,-9.31355 2.60719,0 7.83319,2.60826 10.78699,5.38371 2.87103,2.69768 5.05011,2.74204 4.02937,0.082 -1.04468,-2.72238 0.57617,-6.19368 3.3888,-7.25764 1.5195,-0.5748 6.7214,-1.31102 11.5598,-1.63605 l 8.79707,-0.59096 1.49648,3.25946 c 0.82306,1.7927 2.54802,4.70858 3.83324,6.47974 1.63491,2.25307 2.53811,5.25661 3.00709,10 0.36868,3.72884 0.88763,9.02971 1.15324,11.77971 0.66013,6.83482 -2.50652,15.81203 -7.31439,20.73574 -4.61326,4.7244 -7.60598,4.84041 -19.22032,0.74503 -5.0288,-1.77322 -8.81615,-2.61411 -9.35354,-2.07672 -0.5374,0.5374 -0.49456,2.86543 0.10578,5.7495 1.16406,5.59216 0.20243,18.43159 -1.53748,20.52805 -0.67037,0.80775 -1.10762,4.04842 -1.01195,7.50014 0.14526,5.24079 -0.21193,6.57655 -2.59361,9.6991 -1.51914,1.99169 -4.07228,4.29879 -5.67364,5.12689 -3.13604,1.62171 -4.27428,4.61139 -5.51754,14.49227 -42.1722,-15.1952 -65.86486,-2.50418 -92.84811,-5.93668 z m 47.66073,4.13425 c -259.87662,267.33718 -129.93831,133.66859 0,0 z m 5.71987,-116.23186 c -1.29833,-0.86874 -1.23902,-1.2028 0.44113,-2.48468 2.42418,-1.84954 3.65937,-1.86079 6.11774,-0.0557 1.87222,1.3747 1.8412,1.46344 -0.87397,2.5 -3.42357,1.30699 -3.7881,1.30958 -5.6849,0.0404 z m 57,-8.03589 c 0,-1.24923 2.87301,-3.84185 4.31955,-3.89799 0.45075,-0.0175 0.67575,0.9807 0.5,2.2182 -0.33819,2.38125 -4.81955,3.94317 -4.81955,1.67979 z m -119.5869,-2.42207 c -1.75312,-2.6756 -1.31366,-5.50772 0.85463,-5.50772 1.12208,0 3.73227,5.11998 3.73227,7.321 0,1.67142 -3.10891,0.44242 -4.5869,-1.81328 z m 22.25357,-2.17439 c -0.36667,-0.36666 -0.66667,-1.26358 -0.66667,-1.99314 0,-0.72956 -0.78391,-3.13591 -1.74202,-5.34745 -1.26103,-2.91075 -2.15838,-3.83695 -3.25,-3.35448 -3.04199,1.34451 -7.83814,1.523 -9.98927,0.37175 -1.80444,-0.9657 -2.10017,-1.76224 -1.61482,-4.34938 0.59778,-3.18645 -0.5351,-10.33459 -4.34251,-27.40004 -1.29337,-5.79708 -2.06138,-12.79936 -2.06138,-18.79449 0,-5.25529 -0.66934,-12.34755 -1.48743,-15.76058 -0.81809,-3.41304 -2.40239,-14.53052 -3.52067,-24.70552 -2.24959,-20.46855 -4.25407,-33.83429 -5.80357,-38.69789 -0.78882,-2.47594 -0.7037,-3.45943 0.37705,-4.35637 1.92981,-1.6016 9.46131,2.88317 13.14355,7.82656 1.52719,2.05023 4.95429,6.38285 7.6158,9.62804 2.6615,3.24519 5.27344,7.04276 5.80431,8.43905 0.53087,1.39629 2.9985,5.3881 5.48362,8.87069 2.48512,3.48259 5.44956,8.46002 6.58764,11.06095 1.23154,2.81451 4.64613,7.20953 8.43447,10.85628 6.37359,6.13536 7.67367,8.37269 4.86523,8.37269 -3.23465,0 -1.14191,3.50632 7.04629,11.8058 6.29109,6.37661 8.76496,8.30862 9.375,7.32156 0.675,-1.09217 0.97748,-1.10017 1.63076,-0.0431 0.45977,0.74392 0.33309,1.45407 -0.29683,1.66404 -0.71019,0.23673 -0.90414,2.25321 -0.54832,5.70077 0.48996,4.74729 0.32618,5.40569 -1.48786,5.98145 -6.06094,1.92367 -4.99765,7.92428 1.60172,9.03924 4.6848,0.79149 12.17924,-0.98429 12.17924,-2.88582 0,-0.73646 -0.675,-1.89921 -1.5,-2.5839 -0.825,-0.68469 -1.49054,-1.97729 -1.47898,-2.87244 0.0131,-1.01657 2.05912,0.51167 5.45014,4.07097 2.98601,3.1342 6.79393,6.40431 8.46205,7.26693 3.49047,1.80499 6.07634,6.18285 6.04544,10.23488 -0.0161,2.11312 -0.997,3.48992 -4,5.61451 -2.18826,1.54817 -3.97865,3.47181 -3.97865,4.27476 0,0.80294 -1.0946,1.87606 -2.43245,2.38471 -1.9303,0.7339 -3.53021,0.31932 -7.75,-2.00825 -8.61075,-4.74953 -11.59058,-5.48145 -13.88025,-3.40933 -1.06551,0.96428 -1.9373,2.41158 -1.9373,3.21623 0,0.80465 -1.35,3.00057 -3,4.87981 -1.65,1.87925 -3.0007,4.41365 -3.00154,5.63202 -10e-4,2.12714 -0.36919,2.2152 -9.25,2.2152 -5.08666,0 -9.81096,-0.36406 -10.49846,-0.80902 -0.85722,-0.5548 -1.25,-0.16202 -1.25,1.25 0,1.97536 -1.93999,2.7857 -3.33333,1.39235 z m 10.59597,-29.57439 c 1.99479,-1.3814 4.35727,-1.88568 8.5,-1.81439 3.15555,0.0543 7.03318,0.10254 8.61697,0.10718 3.15753,0.009 7.62039,-2.45376 7.62039,-4.20563 0,-0.74231 -1.23717,-0.86863 -3.75,-0.38288 -10.02568,1.93805 -9.25,2.0398 -9.25,-1.21336 0,-3.63291 -4.26418,-8.24986 -7.61952,-8.24986 -1.82245,0 -2.93312,1.15707 -4.97106,5.17875 -3.31596,6.54373 -5.42388,12.47346 -4.69368,13.20365 0.61677,0.61678 1.40878,0.24219 5.5469,-2.62346 z m 35.23736,-1.75894 c 0.33992,-0.55 0.14148,-1 -0.44098,-1 -0.58246,0 -1.05902,0.45 -1.05902,1 0,0.55 0.19844,1 0.44098,1 0.24254,0 0.7191,-0.45 1.05902,-1 z m -37.5,-19.55902 c 0,-0.79254 -0.675,-1.44098 -1.5,-1.44098 -1.50623,0 -2.05568,2.11099 -0.86052,3.30615 0.93324,0.93324 2.36052,-0.19452 2.36052,-1.86517 z m -1.93426,-11.47616 c 3.22126,-1.72397 2.49471,-5.82571 -1.31574,-7.42796 -2.2734,-0.95594 -3.62562,-1.05488 -4.5,-0.32928 -1.30952,1.08671 -1.73236,6.97673 -0.58333,8.12575 0.9918,0.99181 4.20281,0.80689 6.39907,-0.36851 z m -5.55124,-16.01052 c 0.60912,-1.91914 -0.26744,-4.18741 -4.81289,-12.4543 -2.95572,-5.37562 -9.70161,-21.70824 -9.70161,-23.48877 0,-0.95492 -1.2375,-3.3301 -2.75,-5.27818 -1.5125,-1.94808 -3.51657,-4.93496 -4.45349,-6.63751 -1.80939,-3.28798 -3.79651,-4.10817 -3.79651,-1.56702 0,1.71 4.80105,11.36579 7.94134,15.97148 1.12501,1.65 2.05188,4.35 2.05971,6 0.0204,4.30522 3.38961,14.78452 6.41086,19.93989 1.42345,2.42894 2.58809,5.03362 2.58809,5.78818 0,3.69403 5.43302,5.13369 6.5145,1.72623 z"
         id="path3060"
         inkscape:connector-curvature="0" />
      <path
         sodipodi:nodetypes="csssssssssssssssssssscsssssscscsssssssssssscssssssssssssssscssssssssssssssssssscssscsssscsssssscccsscssssssssssssssssssssss"
         style="fill:#506a51"
         d="m 355.61028,717.74034 c 0.2726,-1.27029 -23.90408,-3.04539 -27.14809,-4.5 -3.43844,-1.54179 -4.62741,-13.53487 -4.32548,-14.70013 0.48432,-1.86912 1.09956,-2.06365 5.22353,-1.6516 2.57101,0.25688 7.51498,1.09778 10.98661,1.86866 8.95511,1.98849 12.18795,1.85857 12.18795,-0.48982 0,-1.27324 -1.30733,-2.41451 -4,-3.4919 -2.36857,-0.94772 -4,-2.26312 -4,-3.22516 0,-1.63913 -1.06945,-1.61625 -6.75,0.14438 -3.37594,1.04634 -2.73808,-1.09109 0.75773,-2.5391 1.65425,-0.68521 4.77189,-2.95791 6.9281,-5.05043 5.18199,-5.02896 6.23723,-10.72667 3.11872,-16.83945 -1.17161,-2.29653 -1.86947,-4.59737 -1.55081,-5.11297 0.31866,-0.5156 -0.14896,-2.04905 -1.03915,-3.40765 -0.89019,-1.35861 -2.61276,-6.51236 -3.82792,-11.45279 -2.01143,-8.17777 -2.59999,-9.32922 -6.56887,-12.85129 -3.71205,-3.29416 -4.20312,-4.16086 -3.30662,-5.83597 0.72532,-1.35528 0.73948,-3.67499 0.0455,-7.45676 -0.55402,-3.01922 -0.75228,-7.67853 -0.44057,-10.35403 0.70041,-6.0118 -1.32723,-10.64715 -4.64183,-10.6116 -4.45464,0.0478 -9.97265,1.8608 -12.29038,4.0382 l -2.37275,2.22908 -0.95027,-2.4994 c -0.52265,-1.37467 -2.58427,-3.46348 -4.58137,-4.64181 -7.23447,-4.26844 -12.32679,-20.65917 -9.52617,-30.66201 1.30664,-4.66686 4.89336,-8.48792 7.96737,-8.48792 0.93557,0 3.79089,-1.6282 6.34517,-3.61821 2.55427,-1.99002 8.81562,-5.31634 13.91411,-7.39183 l 9.26997,-3.77361 2.24503,2.64183 c 1.23477,1.453 2.24727,3.43543 2.25,4.40539 0.003,0.96996 0.42779,2.54496 0.94457,3.5 0.51678,0.95504 1.19485,2.95204 1.50684,4.43779 0.59313,2.82462 8.30542,10.76593 11.68669,12.03374 1.07828,0.4043 2.45054,2.14077 3.04945,3.85881 0.98909,2.83729 1.39394,3.07422 4.41533,2.58391 2.50494,-0.40649 4.23653,0.0778 7.01191,1.96127 3.65944,2.48336 4.49236,2.3271 5.68294,-1.06614 0.54925,-1.56541 2.63902,0.37301 4.64844,4.3118 3.28447,6.43809 4.61616,6.93661 8.49277,3.17925 2.79299,-2.70708 3.68379,-3.07135 5.34137,-2.18423 1.09415,0.58557 2.27277,1.80323 2.61916,2.7059 0.41642,1.08517 1.34076,1.45532 2.72819,1.0925 1.52522,-0.39886 2.24067,-0.005 2.61927,1.4431 0.36549,1.39763 1.00375,1.77679 2.13946,1.27098 0.89022,-0.39648 3.30608,-0.63606 5.36858,-0.5324 2.77552,0.13949 3.75,-0.2076 3.75,-1.33569 0,-1.81439 1.96854,-1.95125 5.42353,-0.37705 2.19257,0.999 2.7823,0.83761 4.56743,-1.25 1.12738,-1.31841 2.72717,-3.63461 3.55509,-5.14711 0.96294,-1.75917 2.32906,-2.75 3.79157,-2.75 3.08784,0 6.32422,-4.60414 8.14197,-11.58294 0.8101,-3.1102 1.87155,-6.16389 2.35877,-6.78598 2.14576,-2.73973 2.22869,-6.73038 0.19364,-9.31753 -2.45786,-3.12471 -2.79003,-9.31355 -0.49984,-9.31355 2.60719,0 7.83319,2.60826 10.78699,5.38371 2.87103,2.69768 5.05011,2.74204 4.02937,0.082 -1.04468,-2.72238 0.57617,-6.19368 3.3888,-7.25764 1.5195,-0.5748 6.7214,-1.31102 11.5598,-1.63605 l 8.79707,-0.59096 1.49648,3.25946 c 0.82306,1.7927 2.54802,4.70858 3.83324,6.47974 1.63491,2.25307 2.53811,5.25661 3.00709,10 0.36868,3.72884 0.88763,9.02971 1.15324,11.77971 0.66013,6.83482 -2.50652,15.81203 -7.31439,20.73574 -4.61326,4.7244 -7.60598,4.84041 -19.22032,0.74503 -5.0288,-1.77322 -8.81615,-2.61411 -9.35354,-2.07672 -0.5374,0.5374 -0.49456,2.86543 0.10578,5.7495 1.16406,5.59216 0.20243,18.43159 -1.53748,20.52805 -0.67037,0.80775 -1.10762,4.04842 -1.01195,7.50014 0.14526,5.24079 -0.21193,6.57655 -2.59361,9.6991 -1.51914,1.99169 -4.07228,4.29879 -5.67364,5.12689 -3.13604,1.62171 -4.27428,4.61139 -5.51754,14.49227 -0.38063,3.025 -1.26005,6.625 -1.95427,8 -2.9135,5.77053 -4.62923,12.86477 -3.96616,16.39927 0.55794,2.97408 0.38298,3.60073 -1.00534,3.60073 -1.16927,0 -1.58359,0.68169 -1.36129,2.23978 0.36743,2.57538 3.81955,3.78064 3.81955,1.33354 0,-2.07552 1.26736,-1.98716 4.07198,0.28388 l 2.29354,1.8572 -2.68276,1.75781 c -1.47552,0.96682 -2.68276,2.20363 -2.68276,2.74847 0,0.54485 -1.16319,2.37301 -2.58487,4.06258 l -2.58487,3.07194 2.83487,1.57242 c 2.20352,1.22222 5.49095,1.52658 14.76117,1.36662 11.12775,-0.19201 11.73161,0.3331 14.05917,2 1.52857,1.09469 -2.17809,9.3862 -3.87752,9.98991 -15.06399,5.35135 -45.98262,-5.95109 -44.89364,7.04634 -29.91668,-7.78162 -10.95933,-35.06599 -14.09928,-62.0257 -0.67534,-5.79847 -1.96223,-5.55379 -5.25367,-6.83249 -1.99267,-0.77414 -4.53363,3.6575 -5.71326,8.76687 -1.1547,5.00139 -7.34556,14.79019 -5.06467,22.01592 4.92419,15.5996 2.33783,22.19796 -0.10487,27.33215 -1.09518,2.3019 -3.82559,8.557 -4.88493,8.72453 -6.88043,1.08808 -14.1685,-0.82465 -18.51815,-0.73027 z m 36.55607,-30.5729 c -261.44423,243.46316 -130.72212,121.73158 0,0 z m -36.43155,-6.20857 c -0.64167,-0.64167 -1.49863,-0.8347 -1.90437,-0.42896 -0.40574,0.40574 -0.0888,1.13877 0.70437,1.62896 1.86759,1.15423 2.71091,0.31091 1.2,-1.2 z m 1.91046,-166.45197 c -6.0285,-3.41651 -6.6465,-3.56232 -10.93715,-2.58048 -5.01644,1.14792 -9.17331,0.16867 -9.17331,-2.16101 0,-3.44635 1.25548,-4.60654 4.98486,-4.60654 3.61367,0 10.96895,-2.42327 12.01514,-3.95851 0.275,-0.40355 3.425,-2.75759 7,-5.2312 6.87533,-4.75718 12.4621,-6.3455 16.6796,-4.74201 3.44156,1.30848 8.91389,-0.30464 12.41612,-3.65998 2.31315,-2.21615 3.95261,-2.75035 9.70362,-3.16183 6.24146,-0.44657 7.38398,-0.22334 11.64875,2.27597 8.06575,4.72685 8.43717,8.91816 1.4897,16.81089 -4.95768,5.63223 -7.86451,5.98556 -17.13658,2.083 -7.20965,-3.0345 -10.21133,-2.37852 -11.27493,2.464 -0.36342,1.65464 -2.4318,4.60847 -4.5964,6.56406 -3.63096,3.28035 -4.41927,3.55442 -10.18276,3.54019 -5.32041,-0.0131 -7.19495,-0.55258 -12.63666,-3.63655 z m 43.88954,-23.34803 c 0,-0.55 -0.45,-1 -1,-1 -0.55,0 -1,0.45 -1,1 0,0.55 0.45,1 1,1 0.55,0 1,-0.45 1,-1 z"
         id="path3058"
         inkscape:connector-curvature="0" />
      <path
         sodipodi:nodetypes="ccsssssssssscssssssssssssssscsscssssscsssssssssssscsscssssssssssssssssssssssssssccscsssssssssscssssssssssssssssssssssssssssssssscsssssscsscssscssssssscsscsssssssssccsssssssssssssssssscscsscssssscssscsssscssssscssssccssssssssscsssssssssssssssssssssssscsssssccsssssssssssssscssssscssssssssssssccssssssscsssssccsccssssssssssssssscscccccscccssssssscssssssccssssscssscssssssssscssccssssssscssssssssssssssssssssscscccssssssssscscssscssssssssssssssssssssssssssssssscssssssssscsscsccssssssssssssssssssssssssssssssssssssssssssssssssscsssscsscssscssscss"
         style="fill:#354f32"
         d="m 361.92066,716.72201 c -0.30326,-0.79027 -1.19487,-1.18993 -1.98135,-0.88812 -0.78649,0.3018 -2.01164,0.066 -2.72255,-0.52401 -0.71091,-0.59 -6.7723,-1.38242 -13.46974,-1.76092 -6.69745,-0.37851 -13.15181,-1.18362 -14.34303,-1.78914 -2.83087,-1.43899 -5.14844,-9.83679 -3.38155,-12.25316 1.05935,-1.44875 2.35234,-1.50028 12.09923,-0.4822 14.26945,1.49047 14.41313,1.48293 14.41313,-0.75701 0,-1.27324 -1.30733,-2.41451 -4,-3.4919 -4.30839,-1.72388 -5.27393,-4.49989 -2.62181,-7.53794 2.81026,-3.21919 6.62181,-11.6609 6.62181,-14.6658 0,-1.83297 -0.81857,-3.84376 -2,-4.91294 -1.1,-0.99549 -2.01135,-2.97773 -2.02522,-4.40499 -0.0139,-1.42725 -1.36387,-6.64202 -3,-11.58836 -3.45336,-10.44019 -3.39077,-10.09678 -1.56381,-8.58054 0.94274,0.78241 1.62179,0.8299 2.04625,0.14312 1.17485,-1.90095 -1.49398,-5.05417 -6.36834,-7.52419 -2.66161,-1.34874 -5.07607,-3.06928 -5.36546,-3.82341 -0.28939,-0.75413 -0.0616,-3.40134 0.50622,-5.88267 0.91625,-4.00399 1.29889,-4.46058 3.40137,-4.05867 2.59019,0.49515 3.07878,-0.66079 1.11899,-2.64738 -1.00291,-1.01663 -0.69062,-1.67716 1.57989,-3.34161 2.13532,-1.56534 2.50468,-2.27551 1.50488,-2.89342 -1.03806,-0.64156 -0.89294,-1.1482 0.6701,-2.33939 1.71631,-1.308 1.78619,-1.65737 0.5,-2.5 -1.286,-0.84251 -1.21606,-1.19041 0.5,-2.4872 3.89676,-2.94471 4.1527,-2.29703 1.94765,4.92871 -1.53177,5.0195 -1.35709,7.64747 0.84753,12.75 2.14433,4.963 3.36424,3.01506 3.56118,-5.68648 0.0615,-2.71507 0.62732,-5.41507 1.25749,-6 0.85116,-0.79007 0.99162,-0.23786 0.54627,2.14771 -0.32971,1.76617 -0.15688,3.48477 0.38408,3.81909 0.54095,0.33433 0.72466,1.02678 0.40822,1.53878 -0.31643,0.51199 -0.11916,0.9309 0.43838,0.9309 1.15433,0 2.46763,-5.86587 1.93667,-8.65014 -0.19402,-1.01742 -1.36067,-1.99366 -2.59256,-2.16941 -1.7255,-0.24618 -2.23978,-0.97886 -2.23978,-3.19098 0,-1.57929 -0.37497,-3.10318 -0.83327,-3.38642 -0.4583,-0.28325 -0.63222,-1.88481 -0.3865,-3.55902 0.26962,-1.83703 0.005,-3.04403 -0.66673,-3.04403 -0.61243,0 -1.1135,1.44 -1.1135,3.2 0,2.48889 -0.26667,2.93333 -1.2,2 -1.83633,-1.83633 -5.17552,-1.4296 -6.56793,0.8 -2.57954,4.1305 -9.23207,1.0038 -9.23207,-4.33908 0,-1.50493 -0.53904,-1.79103 -2.6237,-1.39252 -1.98249,0.37897 -2.74417,0.0409 -3.11663,-1.38343 -0.66296,-2.53517 -4.88336,-2.46039 -6.49174,0.11503 -0.68696,1.1 -1.8299,2 -2.53986,2 -0.70996,0 -1.54986,0.675 -1.86644,1.5 -0.7438,1.9383 -2.34677,1.89914 -5.24097,-0.12804 -1.81599,-1.27197 -2.02869,-1.81207 -0.97251,-2.46949 1.09639,-0.68243 1.11563,-1.2226 0.10185,-2.85839 -1.88033,-3.03401 -1.52473,-3.45411 1.33676,-1.57919 1.42272,0.9322 2.8613,1.42038 3.19684,1.08485 0.33553,-0.33554 -0.22708,-3.07292 -1.25027,-6.08307 -2.34454,-6.89753 -1.2541,-8.35033 1.535,-2.0451 1.48182,3.34989 2.52807,4.56355 3.58457,4.15813 0.82059,-0.31489 2.30571,-0.13703 3.30027,0.39524 1.51805,0.81243 1.90367,0.49085 2.40256,-2.00359 0.60828,-3.04139 2.64427,-4.17428 2.64427,-1.47135 0,0.825 0.70156,1.5 1.55902,1.5 0.85746,0 1.26872,-0.46971 0.91391,-1.0438 -0.35481,-0.5741 -0.19288,-1.58871 0.35984,-2.2547 1.30917,-1.57746 -4.81369,-8.40762 -8.32757,-9.28955 -2.26337,-0.56807 -2.5052,-0.3344 -2.5052,2.42062 0,1.67717 0.45,3.32751 1,3.66743 0.55,0.33992 1,1.99658 1,3.68146 0,5.16253 -2.67647,1.56359 -3.45173,-4.6414 -0.73334,-5.86946 -2.41509,-8.06966 -5.54294,-7.2517 -2.11265,0.55247 -2.5953,-0.80893 -1.11502,-3.14512 0.5993,-0.94581 1.06688,-1.02153 1.54371,-0.25 0.86081,1.39282 3.56598,1.45504 3.56598,0.082 0,-0.56361 -1.09764,-1.44207 -2.4392,-1.95213 -1.34156,-0.51006 -2.94629,-1.87489 -3.56607,-3.03296 -1.07804,-2.01434 -0.96152,-2.07516 2.6892,-1.40362 2.09884,0.38607 4.10326,1.14469 4.45427,1.68582 0.76137,1.17376 3.12082,-0.0442 2.3867,-1.23207 -0.27925,-0.45184 0.65649,-1.58435 2.07943,-2.51669 2.484,-1.62758 2.66984,-1.60643 4.66056,0.53035 1.92881,2.07033 1.95495,2.31213 0.37486,3.46752 -1.55879,1.13981 -1.56389,1.29366 -0.062,1.86997 0.90006,0.34539 3.50079,0.0966 5.77939,-0.5528 2.2786,-0.64943 4.93041,-1.07551 5.89291,-0.94685 0.9625,0.12866 1.75,-0.24436 1.75,-0.82893 -5e-5,-0.58456 -1.57505,-1.06285 -3.50005,-1.06285 -4.54653,0 -4.51403,-1.58718 0.05,-2.44341 2.94021,-0.55158 3.44397,-1.00015 2.93261,-2.61129 -0.43101,-1.35798 -0.14776,-1.9453 0.93815,-1.9453 1.04157,0 1.76693,1.32173 2.1952,4 0.35179,2.2 0.97549,4 1.38598,4 0.4105,0 2.70884,2.025 5.10743,4.5 2.39858,2.475 4.87511,4.5 5.50339,4.5 0.62827,0 1.68443,0.6532 2.34701,1.45156 1.17456,1.41526 0.97591,2.60672 -1.75873,10.54844 -0.28408,0.825 -0.44338,1.98596 -0.35401,2.57991 0.0894,0.59396 -0.85215,1.04396 -2.09228,1 -1.60766,-0.057 -2.34649,0.56584 -2.57433,2.17009 -0.17575,1.2375 0.17758,2.25 0.78518,2.25 1.82917,0 6.05685,-3.15461 5.47954,-4.08872 -0.72338,-1.17045 1.34751,-4.91128 2.71884,-4.91128 0.75561,0 0.84305,1.62275 0.2829,5.25 -1.2445,8.0587 -1.13794,13.08797 0.31518,14.87484 0.72674,0.89366 1.19008,2.18741 1.02963,2.875 -0.16045,0.68759 0.15828,1.41889 0.70828,1.62511 0.63562,0.23833 0.97644,-4.20768 0.93533,-12.20144 -0.0498,-9.67501 -0.38912,-12.77692 -1.47104,-13.44558 -1.90401,-1.17674 -0.91093,-1.95005 3.40334,-2.65016 6.23769,-1.01224 6.77301,0.20078 6.21069,14.07321 -0.40596,10.0151 -0.19658,12.74047 1.21562,15.82322 1.71079,3.73452 3.02425,4.86393 2.93741,2.5258 -0.14485,-3.90038 0.56257,-9.00439 1.00486,-7.25 0.27732,1.1 1.07813,2.82055 1.77959,3.82344 1.73659,2.48284 2.57046,0.87236 3.1799,-6.14135 0.53617,-6.17057 -1.15431,-12.67612 -2.6606,-10.23889 -0.46753,0.75649 -0.64621,1.90664 -0.39707,2.5559 0.49137,1.28049 -2.3419,4.13036 -3.22668,3.24558 -0.29717,-0.29717 -0.23622,-2.1613 0.13546,-4.1425 0.49271,-2.62623 1.18752,-3.60218 2.56451,-3.60218 1.34966,0 1.88871,-0.71594 1.88871,-2.50847 0,-2.2387 -0.21021,-2.3772 -1.95452,-1.28786 -1.07499,0.67134 -2.24915,0.926 -2.60924,0.5659 -0.73487,-0.73487 1.68348,-6.76957 2.71285,-6.76957 0.36348,0 1.89782,2.1107 3.40964,4.69043 2.37814,4.05799 2.78473,5.93452 3.01535,13.91687 0.14661,5.07453 0.68217,10.05134 1.19012,11.05956 0.50796,1.00823 0.82162,5.43314 0.69702,9.83314 -0.12561,4.43565 0.26692,8.89109 0.881,10 1.87754,3.39046 2.50129,-6.21764 1.52193,-23.44306 -0.51472,-9.05299 -0.50808,-15.81301 0.016,-16.33713 1.58452,-1.58452 2.23084,1.04448 2.46622,10.03168 0.12609,4.81409 0.62025,9.38555 1.09815,10.1588 0.47789,0.77325 0.82231,5.38476 0.76538,10.24781 -0.0582,4.96952 0.31114,8.8419 0.84327,8.8419 0.52074,0 0.98992,-1.4625 1.04263,-3.25 0.0527,-1.7875 0.27154,-7.90774 0.48629,-13.60054 0.30063,-7.9698 0.053,-10.83226 -1.0765,-12.44489 -0.97464,-1.39148 -1.26948,-3.32918 -0.87856,-5.77386 0.3568,-2.23132 0.1524,-3.94897 -0.51935,-4.36413 -1.42632,-0.88152 -1.43404,-4.24687 -0.0118,-5.12589 0.60278,-0.37254 1.80162,0.0283 2.6641,0.8908 1.19974,1.19974 1.29946,1.89186 0.42447,2.94617 -0.80398,0.96873 -0.85411,2.38765 -0.16878,4.77726 0.53619,1.86957 0.72881,4.17455 0.42804,5.12217 -0.30076,0.94763 0.15135,3.0731 1.00468,4.72327 0.85334,1.65018 1.55153,3.92267 1.55153,5.04998 0,1.12731 0.50242,2.04966 1.1165,2.04966 1.07624,0 0.69736,-8.11142 -0.78238,-16.75 -0.42994,-2.50996 -0.20324,-3.25 0.99557,-3.25 0.85375,0 1.84474,0.47321 2.20219,1.05158 1.26729,2.05052 2.09479,23.34436 1.22211,31.44842 -0.36861,3.42305 -0.0602,5.92739 0.97796,7.94044 1.42788,2.76884 1.59487,2.83309 2.86136,1.10106 1.34663,-1.84163 1.23994,-10.69739 -0.24146,-20.0415 -0.79523,-5.01602 -0.77335,-13.41184 0.0371,-14.22226 1.09206,-1.09206 1.83552,0.53389 2.35615,5.15289 0.58363,5.17794 2.25493,5.18561 2.25493,0.0103 0,-1.89254 0.45,-3.44098 1,-3.44098 0.55,0 1,0.8449 1,1.87756 0,1.03265 0.62245,2.39414 1.38322,3.02552 1.92578,1.59826 2.61006,-0.53425 1.8912,-5.89376 -0.52543,-3.91739 -0.42522,-4.16315 1.32864,-3.25827 1.04332,0.53828 2.45944,0.777 3.14694,0.53049 0.6875,-0.24651 1.25,0.30179 1.25,1.21846 0,0.91667 0.5625,1.4791 1.25,1.24984 0.70809,-0.23611 1.26409,-2.11473 1.28249,-4.33333 0.0372,-4.47334 0.95369,-6.41646 3.02658,-6.41646 0.98017,0 1.44098,-1.11926 1.44098,-3.5 0,-3.59601 0.78946,-4.31054 2.67704,-2.42296 0.7694,0.7694 1.70291,0.19811 3.2681,-2 1.20508,-1.69237 2.79959,-3.07704 3.54336,-3.07704 0.9269,0 1.5722,-2.05327 2.05129,-6.52691 0.47409,-4.42704 1.25104,-6.92041 2.41494,-7.75 2.52419,-1.79916 3.35298,-7.27252 1.39735,-9.22815 -1.8913,-1.89131 -3.58599,-8.49494 -2.18005,-8.49494 0.52878,0 2.43636,1.125 4.23908,2.5 1.80272,1.375 3.77534,2.5 4.38359,2.5 0.60826,0 1.55425,0.7875 2.1022,1.75 1.50129,2.63706 4.66462,0.28737 4.39762,-3.26649 -0.13345,-1.77623 0.56768,-3.3804 2,-4.576 2.92766,-2.44379 3.98807,-2.37323 3.16793,0.2108 -0.48754,1.53609 -0.29992,1.98857 0.68261,1.64626 0.74522,-0.25963 1.23051,-1.17894 1.07842,-2.04291 -0.3651,-2.07404 1.77577,-3.34091 2.81211,-1.66408 0.66903,1.08252 1.08947,1.08352 2.38819,0.006 1.21227,-1.00608 1.90202,-1.03775 2.98719,-0.13714 0.96456,0.80051 1.61601,0.83925 2.05902,0.12245 0.95912,-1.55222 2.53001,-1.27192 2.53001,0.45111 0,0.825 0.72314,1.5 1.60699,1.5 1.05452,0 1.39831,0.5438 1,1.58179 -0.33385,0.86998 -0.60699,1.76998 -0.60699,2 0,0.23001 -0.85186,0.41821 -1.89301,0.41821 -2.72105,0 -3.10764,2.01757 -1.10222,5.75239 1.50169,2.79669 1.92108,3.04189 2.99325,1.75 1.99663,-2.40579 3.00198,-1.75657 3.00198,1.93859 0,1.89254 0.43035,3.70695 0.95633,4.03203 0.52598,0.32507 0.68475,1.36413 0.35282,2.30902 -0.49723,1.41543 -0.36223,1.4938 0.76662,0.44502 0.8186,-0.76053 1.24736,-2.77323 1.06515,-5 -0.2017,-2.46494 0.0303,-3.38841 0.68516,-2.72705 0.54457,0.55 1.14398,4.91399 1.33202,9.69775 0.30492,7.75702 0.197,8.42108 -0.99782,6.13972 -2.15292,-4.11075 -3.66349,-1.31277 -3.34329,6.19268 0.20501,4.80561 -0.25083,7.66219 -1.77118,11.09919 l -2.04724,4.62813 -4.74929,-0.64291 c -2.6121,-0.3536 -8.10287,-1.71246 -12.2017,-3.01967 -7.70084,-2.45599 -10.04758,-2.43603 -10.04758,0.0854 0,0.85881 -0.72506,1.32608 -1.75,1.12782 -1.32948,-0.25718 -1.67055,-1.12793 -1.41935,-3.62369 0.18186,-1.80684 -0.0769,-3.825 -0.57492,-4.4848 -0.49806,-0.6598 -1.46099,-3.14076 -2.13984,-5.51324 -0.72537,-2.53504 -1.72527,-4.14153 -2.42509,-3.89626 -0.65494,0.22954 -1.05857,1.15816 -0.89696,2.0636 0.16855,0.94434 -0.36442,1.64626 -1.25,1.64626 -0.84911,0 -1.59575,0.5625 -1.65919,1.25 -0.0634,0.6875 -0.18584,1.925 -0.272,2.75 -0.0862,0.825 0.17356,2.49657 0.57714,3.7146 0.76915,2.32132 -0.57379,4.09112 -1.70972,2.25315 -0.45765,-0.7405 -1.08792,-0.70817 -2.0691,0.10614 -1.54515,1.28236 -1.89782,4.50718 -0.58186,5.32049 0.456,0.28183 1.42788,3.00839 2.15971,6.05902 0.73184,3.05063 1.70874,5.5466 2.17089,5.5466 0.46216,0 0.84029,0.99 0.84029,2.2 0,1.66636 0.28079,1.91921 1.15762,1.04238 0.84539,-0.84539 0.86082,-1.51524 0.0572,-2.48354 -0.62268,-0.75028 -0.74432,-1.90209 -0.28019,-2.65308 0.45113,-0.72993 0.59791,-2.17734 0.32617,-3.21646 -0.72882,-2.78701 3.16389,-2.46835 4.40622,0.3607 1.46026,3.32532 0.166,6.89576 -3.19679,8.8189 -2.86386,1.6378 -3.0329,1.62222 -4.72003,-0.43513 -1.72489,-2.10338 -1.74561,-2.07681 -1.45563,1.86623 0.22476,3.05616 0.69663,3.96723 1.9998,3.86111 2.09693,-0.17075 2.25159,1.21541 0.22249,1.99405 -0.84393,0.32384 -1.22881,1.23192 -0.89301,2.10699 0.32457,0.84582 0.12774,1.53785 -0.43741,1.53785 -0.56514,0 -1.3473,-1.4559 -1.73813,-3.23533 -0.39083,-1.77944 -1.33679,-4.19103 -2.10214,-5.3591 -0.76535,-1.16807 -1.12565,-2.81665 -0.80068,-3.66351 0.32497,-0.84687 0.107,-1.8388 -0.48438,-2.20429 -0.59138,-0.36549 -1.3452,0.039 -1.67516,0.89885 -0.32996,0.85986 -1.22678,1.56338 -1.99294,1.56338 -0.76615,0 -1.39301,0.675 -1.39301,1.5 0,0.825 0.45,1.5 1,1.5 0.55,0 1,-0.45 1,-1 0,-2.17027 1.79724,-0.84103 2.28043,1.68662 0.63765,3.33567 -0.0649,5.31338 -1.88742,5.31338 -2.07665,0 -1.6833,2.11133 0.49971,2.6822 1.1154,0.29168 2.13729,1.71785 2.48825,3.47265 0.58342,2.91712 2.61903,3.13951 2.61903,0.28613 0,-1.65841 1.58215,-1.92609 2.51008,-0.42467 0.34546,0.55897 1.01099,0.77969 1.47894,0.49047 0.46796,-0.28921 1.76775,0.63984 2.88844,2.06456 1.47657,1.87716 2.59824,2.41246 4.07378,1.94414 1.57305,-0.49927 1.89955,-0.29022 1.43548,0.91913 -0.33038,0.86096 -1.25411,1.56539 -2.05273,1.56539 -0.79861,0 -1.23016,0.35899 -0.95899,0.79775 0.27117,0.43876 0.0796,1.45126 -0.42567,2.25 -0.74101,1.17135 -0.92167,1.18679 -0.93402,0.0798 -0.0107,-0.95784 -0.39293,-1.07393 -1.26531,-0.38428 -0.6875,0.5435 -2.59024,1.42034 -4.22831,1.94855 -2.16885,0.69936 -2.9842,1.59531 -3,3.29656 -0.0306,3.29129 -2.3172,3.67966 -3.49079,0.59289 -1.45467,-3.82608 -1.79983,-3.14796 -1.01844,2.00085 0.43716,2.88055 0.22597,5.94419 -0.56872,8.25 -1.49107,4.32639 -0.32698,6.71093 2.52978,5.18204 3.26776,-1.74885 4.04692,1.5056 1.52032,6.35014 -0.82161,1.57537 -1.49384,3.6802 -1.49384,4.67742 0,0.99721 -1.12433,2.6975 -2.4985,3.77843 -2.33662,1.83798 -2.46602,2.40961 -1.99725,8.82258 0.51916,7.10231 1.88961,9.35726 5.68688,9.35726 0.99488,0 1.80887,0.23111 1.80887,0.51357 0,0.91234 -2.43808,4.90127 -4.83487,7.91031 l -2.33487,2.93129 2.83487,1.53884 c 1.9449,1.05573 6.54643,1.66159 14.6575,1.92988 8.94098,0.29574 11.95362,0.73244 12.36009,1.79168 0.75908,1.97813 -2.37588,8.15936 -4.45031,8.77472 -0.95282,0.28265 -8.03241,0.48742 -15.73241,0.45505 -7.7,-0.0324 -16.86391,-0.0667 -20.36424,-0.0763 -3.58654,-0.01 -6.66235,0.46493 -7.04726,1.08772 -0.75011,1.2137 -10.57521,-2.01351 -12.84396,-4.2188 -2.05337,-1.99594 -2.51417,-19.63954 -0.64838,-24.8257 1.89392,-5.26432 2.75522,-25.2505 1.21715,-28.24338 -1.76803,-3.44031 -5.05716,-6.56887 -6.90606,-6.56887 -2.28338,0 -5.90725,5.93625 -5.90725,9.67663 0,1.61731 -1.35,6.63965 -3,11.16076 -3.34317,9.16049 -3.63601,11.80336 -1.62777,14.6901 2.03667,2.92762 3.04828,8.28106 2.73478,14.47251 -0.23842,4.70886 -0.7696,6.00952 -3.69275,9.04216 -2.17302,2.25442 -3.41426,4.52659 -3.41426,6.25 0,2.64448 -0.14113,2.70784 -6.03138,2.70784 -4.32095,0 -6.18775,-0.40748 -6.58276,-1.43686 z m 0.61414,-3.56314 c 0,-0.55 -0.675,-1 -1.5,-1 -0.825,0 -1.5,0.45 -1.5,1 0,0.55 0.675,1 1.5,1 0.825,0 1.5,-0.45 1.5,-1 z m -6.8,-32.2 c -0.64167,-0.64167 -1.49863,-0.8347 -1.90437,-0.42896 -0.40574,0.40574 -0.0888,1.13877 0.70437,1.62896 1.86759,1.15423 2.71091,0.31091 1.2,-1.2 z m 22.46228,-38.05 c -0.27741,-0.6875 -0.50439,-0.125 -0.50439,1.25 0,1.375 0.22698,1.9375 0.50439,1.25 0.27741,-0.6875 0.27741,-1.8125 0,-2.5 z m -5.97917,0.0625 c -0.31922,-0.79773 -0.55618,-0.56078 -0.60416,0.60417 -0.0434,1.05416 0.19293,1.64479 0.52522,1.3125 0.33229,-0.33229 0.36781,-1.1948 0.0789,-1.91667 z m 44.31689,1.24652 c 0,-0.51754 -0.45,-1.2191 -1,-1.55902 -0.55,-0.33992 -1,0.0835 -1,0.94098 0,0.85746 0.45,1.55902 1,1.55902 0.55,0 1,-0.42344 1,-0.94098 z m -50,-2.55902 c 0,-1.375 -0.45,-2.5 -1,-2.5 -0.55,0 -1,1.125 -1,2.5 0,1.375 0.45,2.5 1,2.5 0.55,0 1,-1.125 1,-2.5 z m 55,0.44098 c 0,-0.51754 -0.45,-0.94098 -1,-0.94098 -0.55,0 -1,0.70156 -1,1.55902 0,0.85746 0.45,1.2809 1,0.94098 0.55,-0.33992 1,-1.04148 1,-1.55902 z m -66.39583,-2.67015 c -1.01652,-1.01651 -1.85525,0.51389 -1.02122,1.86338 0.63003,1.01942 0.86558,1.02021 1.2043,0.004 0.2316,-0.69479 0.14921,-1.53513 -0.18308,-1.86742 z m -4.92106,-1.45833 c -0.31922,-0.79773 -0.55618,-0.56078 -0.60416,0.60417 -0.0434,1.05416 0.19293,1.64479 0.52522,1.3125 0.33229,-0.33229 0.36781,-1.1948 0.0789,-1.91667 z m 64.29144,-10.86569 c 0.67924,-6.46867 2.52545,-6.41905 2.52545,0.0679 0,6.20984 1.05005,6.47147 1.94773,0.48531 1.10833,-7.39089 3.16133,-5.62744 2.61943,2.25 -0.12296,1.7875 0.24123,3.25 0.80932,3.25 1.47234,0 2.36667,-5.81158 1.86375,-12.11107 -0.37702,-4.72248 -0.68425,-5.36168 -2.48427,-5.16861 -1.47987,0.15874 -2.2583,-0.5401 -2.78473,-2.5 l -0.7307,-2.72032 -0.8347,2.94039 c -0.55092,1.94072 -0.43264,3.42484 0.3479,4.36534 0.9637,1.16118 0.81965,1.35505 -0.77818,1.04734 -1.45613,-0.28043 -2.18357,-1.59701 -2.82635,-5.11534 -1.51608,-8.2984 -2.54553,-5.12729 -2.57859,7.943 -0.025,9.89368 0.23283,12.41583 1.17321,11.47545 0.66291,-0.66291 1.44174,-3.45712 1.73073,-6.20937 z m 5.52545,-7.94681 c 0.33992,-0.55 0.81648,-1 1.05902,-1 0.24254,0 0.44098,0.45 0.44098,1 0,0.55 -0.47656,1 -1.05902,1 -0.58246,0 -0.7809,-0.45 -0.44098,-1 z m -47.87593,9.75 c 0.0143,-1.7875 0.37521,-4.75698 0.8021,-6.59884 0.7361,-3.17601 -0.55093,-6.35973 -1.98944,-4.92123 -0.71317,0.71317 -1.23476,11.73634 -0.63973,13.52007 0.78684,2.35875 1.80115,1.24844 1.82707,-2 z m 25.92317,-0.15014 c 0.79151,-4.21908 0.33479,-6.80693 -1.29724,-7.35033 -0.90044,-0.29981 -1.25,1.14516 -1.25,5.16714 0,6.1724 1.54969,7.50062 2.54724,2.18319 z m 11.44233,-5.03457 c 0.75197,-4.70713 0.77443,-7.20129 0.0712,-7.90453 -0.56508,-0.56508 -1.29054,-0.76431 -1.61213,-0.44272 -0.86949,0.86949 -1.63613,13.66956 -0.89093,14.87532 0.98449,1.59295 1.24718,0.8878 2.43186,-6.52807 z m 22.66535,5.89158 c 0.93028,-2.42426 -0.36778,-2.86191 -1.60908,-0.54252 -0.77398,1.44619 -0.7892,2.08565 -0.0496,2.08565 0.58661,0 1.33304,-0.69441 1.65872,-1.54313 z m 6.01321,-2.87933 c -0.33295,-0.86765 -1.017,-1.57754 -1.52011,-1.57754 -1.1321,0 -2.25959,4.01046 -1.48146,5.2695 0.9045,1.46352 3.67312,-1.94192 3.00157,-3.69196 z m -58.87212,-3.53904 c -0.1628,-1.39617 -0.74601,-2.5385 -1.29601,-2.5385 -1.31329,0 -1.84566,4.01355 -0.97516,7.35171 l 0.6906,2.64829 0.9383,-2.4615 c 0.51606,-1.35382 0.80508,-3.60382 0.64227,-5 z m -13.24703,0.41577 c 0.71423,-5.71646 0.36321,-7.13607 -1.48245,-5.99539 -1.3062,0.80728 -1.435,11.54112 -0.13849,11.54112 0.51043,0 1.23985,-2.49558 1.62094,-5.54573 z m -5.26553,-3.00137 c 0.64473,-3.35599 -0.47653,-6.06964 -2.09471,-5.06955 -1.72565,1.06651 -2.34152,6.08988 -1.12706,9.19293 1.04544,2.67117 1.20873,2.75096 1.89033,0.92372 0.41033,-1.1 1.00947,-3.37119 1.33144,-5.0471 z m 17.71655,-2.4529 c 0,-0.55 -0.19844,-1 -0.44098,-1 -0.24254,0 -0.7191,0.45 -1.05902,1 -0.33992,0.55 -0.14148,1 0.44098,1 0.58246,0 1.05902,-0.45 1.05902,-1 z m 19,0 c 0,-0.55 -0.47656,-1 -1.05902,-1 -0.58246,0 -0.7809,0.45 -0.44098,1 0.33992,0.55 0.81648,1 1.05902,1 0.24254,0 0.44098,-0.45 0.44098,-1 z m -0.39583,-5.72917 c -1.01652,-1.01651 -1.85525,0.51389 -1.02122,1.86338 0.63003,1.01942 0.86558,1.02021 1.2043,0.004 0.2316,-0.69479 0.14921,-1.53513 -0.18308,-1.86742 z m -36.60417,0.22917 c 0,-0.825 -0.45,-1.5 -1,-1.5 -0.55,0 -1,0.675 -1,1.5 0,0.825 0.45,1.5 1,1.5 0.55,0 1,-0.675 1,-1.5 z m 4.98469,-18.75 c 0.0161,-10.22456 -1.37064,-13.11481 -2.39892,-5 -1.46022,11.52357 -1.52135,13.50185 -0.47754,15.45224 1.90461,3.55879 2.8599,0.0875 2.87646,-10.45224 z m 64,1.5 c -0.008,-2.0625 -0.45153,-4.425 -0.98469,-5.25 -0.70991,-1.09851 -0.97347,-0.36246 -0.98469,2.75 -0.008,2.3375 -0.46531,4.25 -1.01531,4.25 -0.55,0 -1,0.45 -1,1 0,0.55 0.9,1 2,1 1.64717,0 1.9973,-0.66156 1.98469,-3.75 z m -84.59168,0.16821 c 0.88994,-2.31915 0.74024,-5.21782 -0.30277,-5.86244 -1.78078,-1.10058 -4.16864,0.62186 -3.55265,2.56265 0.33005,1.03991 0.11972,1.88158 -0.4702,1.88158 -0.58707,0 -1.1193,-0.7875 -1.18274,-1.75 -0.26582,-4.03287 -0.43785,-4.59569 -1.51531,-4.95747 -1.88512,-0.63296 -2.75647,4.91132 -0.93232,5.93217 0.85964,0.48107 1.56298,1.52732 1.56298,2.32499 0,2.03672 5.60523,1.92145 6.39301,-0.13148 z M 343.5348,580.7303 c 0,-0.86429 0.45,-1.57143 1,-1.57143 0.55,0 1,-0.45 1,-1 0,-0.55 -0.65917,-1 -1.46482,-1 -1.74951,0 -3.53518,3.03355 -3.53518,6.00569 0,1.8997 0.16667,1.9705 1.5,0.63717 0.825,-0.825 1.5,-2.20715 1.5,-3.07143 z m 8,-1.65476 c 0,-3.82597 -2.35554,-3.48268 -2.81642,0.41045 -0.22425,1.89427 0.13987,2.67288 1.25,2.67288 1.08321,0 1.56642,-0.95115 1.56642,-3.08333 z m 126,0.0833 c 0,-0.55 -0.45,-1 -1,-1 -0.55,0 -1,0.45 -1,1 0,0.55 0.45,1 1,1 0.55,0 1,-0.45 1,-1 z m -6,-2.05902 c 0,-0.51754 -0.45,-0.94098 -1,-0.94098 -0.55,0 -1,0.70156 -1,1.55902 0,0.85746 0.45,1.2809 1,0.94098 0.55,-0.33992 1,-1.04148 1,-1.55902 z m 7.42997,-0.82767 c 0.30141,-0.48768 -0.082,-1.40954 -0.85195,-2.04856 -1.55873,-1.29363 -3.15488,0.19286 -2.07802,1.93525 0.7652,1.23812 2.20049,1.29363 2.92997,0.11331 z m -7.42997,-3.61331 c 0,-0.825 -0.45,-1.5 -1,-1.5 -0.55,0 -1,0.675 -1,1.5 0,0.825 0.45,1.5 1,1.5 0.55,0 1,-0.675 1,-1.5 z m -5.39227,-3.07322 c 0.76645,-3.05376 -1.17201,-5.74983 -2.54122,-3.5344 -0.46761,0.75661 -0.7083,2.10285 -0.53487,2.99164 0.17344,0.88879 0.34977,1.95348 0.39185,2.36598 0.18499,1.81336 2.09757,0.51428 2.68424,-1.82322 z m 10.5756,0.35655 c -0.71756,-0.71756 -1.18333,-0.7766 -1.18333,-0.15 0,1.33478 1.18261,2.51739 1.85,1.85 0.28417,-0.28416 -0.0158,-1.04916 -0.66667,-1.7 z m -22.68333,-9.29703 c 0,-1.32757 -0.78443,-2.09729 -2.36534,-2.32096 -3.47567,-0.49177 -5.00044,1.46575 -2.58091,3.31343 2.5683,1.9613 4.94625,1.48416 4.94625,-0.99247 z m 15.86163,-4.9863 c 0.31658,-0.825 0.36472,-2.175 0.10699,-3 -1.67091,-5.34845 -1.51521,-5.15661 -2.60694,-3.2118 -1.07522,1.9154 -0.24033,7.7118 1.11079,7.7118 0.44745,0 1.07257,-0.675 1.38916,-1.5 z m -135.36163,62.5 c 0,-0.55 0.47656,-1 1.05902,-1 0.58246,0 0.7809,0.45 0.44098,1 -0.33992,0.55 -0.81648,1 -1.05902,1 -0.24254,0 -0.44098,-0.45 -0.44098,-1 z m 68,-22.38197 c 0,-0.825 0.45,-1.77811 1,-2.11803 0.55,-0.33992 1,0.057 1,0.88197 0,0.825 -0.45,1.77811 -1,2.11803 -0.55,0.33992 -1,-0.057 -1,-0.88197 z m 36,0.38197 c 0,-0.55 0.47656,-1 1.05902,-1 0.58246,0 0.7809,0.45 0.44098,1 -0.33992,0.55 -0.81648,1 -1.05902,1 -0.24254,0 -0.44098,-0.45 -0.44098,-1 z m -137.24534,-6.63833 c -0.27577,-0.47392 -0.22089,-2.88667 0.12197,-5.36167 0.67509,-4.87333 3.3572,-6.37648 3.94783,-2.21251 0.34329,2.42017 -3.21522,9.04279 -4.0698,7.57418 z m 139.04534,-4.56167 c 0.93333,-0.93333 1.46667,-0.93333 2.4,0 0.93333,0.93333 0.66667,1.2 -1.2,1.2 -1.86667,0 -2.13333,-0.26667 -1.2,-1.2 z m -132.3,-7.8 c -0.33992,-0.55 -0.14148,-1 0.44098,-1 0.58246,0 1.05902,0.45 1.05902,1 0,0.55 -0.19844,1 -0.44098,1 -0.24254,0 -0.7191,-0.45 -1.05902,-1 z m 19.7,-21.48945 c 0,-3.02025 0.22966,-3.39885 1.44826,-2.38751 1.63936,1.36055 1.44412,5.02542 -0.29826,5.59863 -0.72334,0.23797 -1.15,-0.95337 -1.15,-3.21112 z m 30.3,-41.68328 c -5.54338,-3.85275 -6.47945,-4.16467 -12.30004,-4.09857 -8.08417,0.0918 -7.72256,-1.31839 1.30217,-5.07818 3.76182,-1.56721 7.4896,-3.49939 8.28395,-4.29374 0.79434,-0.79435 4.20494,-2.87572 7.57909,-4.62528 5.35561,-2.77697 7.15423,-3.18799 14.16064,-3.23593 8.21908,-0.0562 14.70304,-2.0436 15.77414,-4.83485 0.28465,-0.74179 3.28304,-1.93558 6.66308,-2.65288 l 6.14554,-1.30417 5.69572,3.90727 c 4.90262,3.36321 5.73718,4.39895 5.99357,7.43842 0.25335,3.00348 -0.36694,4.23495 -4.15091,8.2409 -5.20804,5.51354 -7.10916,5.79869 -14.79765,2.21951 -2.94212,-1.36963 -6.82779,-2.49463 -8.63484,-2.5 -2.9091,-0.009 -3.49956,0.47716 -5.15355,4.24023 -1.0274,2.3375 -3.23604,5.7125 -4.90809,7.5 -2.80821,3.00212 -3.52107,3.2499 -9.34645,3.24869 -5.77344,-10e-4 -6.81341,-0.3537 -12.30637,-4.17142 z m 17.5,-12.13614 c 0,-4.16528 -2.50377,-7.88816 -3.88848,-5.78181 -0.50956,0.77512 -0.7807,1.90012 -0.60252,2.5 0.17817,0.59987 0.59511,2.32818 0.92653,3.84068 0.87653,4.00028 3.56447,3.57884 3.56447,-0.55887 z m 26.66417,-10.25835 c 0.33077,-0.86197 0.0884,-2.08018 -0.53853,-2.70714 -1.40744,-1.40744 -4.74172,1.4685 -3.68495,3.1784 0.9981,1.61495 3.53139,1.33229 4.22348,-0.47126 z"
         id="path3054"
         inkscape:connector-curvature="0" />
      <path
         style="fill:#1b1b13"
         d="m 337.33106,712.24244 c -4.23706,-0.32097 -8.23621,-1.11772 -8.88701,-1.77058 -0.6508,-0.65285 -1.35503,-3.18567 -1.56497,-5.62847 -0.33125,-3.85439 -0.10068,-4.51496 1.74433,-4.99744 1.16932,-0.30578 3.29767,-0.11051 4.72968,0.43393 1.432,0.54445 3.60508,0.73856 4.82906,0.43136 1.22399,-0.3072 4.42262,-0.0873 7.10807,0.4886 6.51112,1.39638 10.07245,0.0697 10.89838,-4.05999 0.33572,-1.6786 1.45096,-3.50186 2.4783,-4.05168 1.1988,-0.64158 1.8679,-2.09522 1.8679,-4.0581 0,-2.24154 0.54713,-3.20152 2.04842,-3.59411 3.24587,-0.84882 1.88609,-3.558 -3.02992,-6.03676 -4.73744,-2.38871 -6.37432,-4.97443 -5.45864,-8.6228 0.41979,-1.67258 -0.072,-2.55364 -2.00168,-3.58639 -3.06105,-1.63823 -3.13471,-2.29014 -0.65778,-5.82163 1.04522,-1.49023 2.17817,-4.63848 2.51767,-6.9961 0.57316,-3.9803 4.58193,-13.15559 4.58193,-10.48714 0,1.40999 7.5651,3.66055 9.10519,2.70872 0.58357,-0.36067 0.90994,-2.73784 0.72693,-5.29476 -0.18267,-2.55213 0.0912,-4.74818 0.60858,-4.88011 0.51739,-0.13193 0.82574,1.92627 0.68522,4.57379 -0.30309,5.71049 0.74656,6.83374 6.55582,7.01551 3.58438,0.11214 4.24479,-0.18917 4.62305,-2.10929 l 0.44131,-2.24013 0.74358,2.25 c 0.49439,1.49598 1.5423,2.25 3.12695,2.25 3.00855,0 2.99015,0.789 -0.11663,5 -1.52449,2.06633 -2.5,4.72971 -2.5,6.82559 0,1.89037 -1.37062,7.42892 -3.04583,12.3079 l -3.04584,8.87086 2.13445,4.74782 c 2.31276,5.14448 3.60735,14.52136 2.57353,18.64043 -0.96648,3.85078 -5.35271,5.6074 -14.00155,5.6074 -4.11651,0 -8.52636,0.38604 -9.79966,0.85786 -3.68798,1.36659 -11.69066,1.85657 -20.01884,1.22571 z m 63.70374,-0.30685 c -6.15505,-2.07328 -5.98435,-1.70576 -6.21664,-13.3846 -0.14419,-7.24918 0.26254,-12.39717 1.21608,-15.39212 1.15354,-3.62314 2.21795,-19.67175 1.63225,-24.61045 -0.0724,-0.61075 -1.27893,-2.80101 -2.68112,-4.86724 -1.40218,-2.06624 -2.30218,-4.00403 -2,-4.30622 0.30219,-0.30218 2.01193,-0.53576 3.79943,-0.51906 1.7875,0.0167 3.83157,-0.42923 4.54238,-0.99096 0.88079,-0.69605 1.62173,-0.69196 2.32651,0.0128 0.61798,0.61798 2.51241,0.74299 4.70762,0.31064 3.18235,-0.62677 6.1962,-0.66743 11.45517,-0.15453 1.1664,0.11376 2.59375,4.01201 4.17744,11.40901 0.35165,1.64245 1.62584,3.25321 3.10746,3.92828 3.83237,1.74614 2.65122,4.1881 -2.34956,4.85758 -7.24901,0.97045 -7.40177,1.81502 -1.72899,9.55953 0.71759,0.97965 0.36279,1.78679 -1.29622,2.94881 l -2.28425,1.59994 2.04622,3.46809 c 2.34695,3.97779 2.56921,6.54345 0.81078,9.35916 -1.06443,1.70442 -0.86037,2.35334 1.47418,4.68789 2.60307,2.60306 3.26534,2.73861 16.84055,3.44661 7.77201,0.40534 14.33499,0.94104 14.5844,1.19046 0.24941,0.24941 -0.20091,2.01962 -1.00071,3.93381 -1.40298,3.35782 -1.67789,3.49863 -7.80858,3.99961 -3.49492,0.2856 -12.52959,0.0698 -20.07704,-0.47962 -9.82641,-0.71527 -14.62456,-0.68448 -16.89922,0.10848 -3.64688,1.27131 -4.28604,1.26246 -8.37814,-0.11592 z m -14.46456,-72.52672 c -0.0244,-2.23797 0.43165,-3.25 1.46456,-3.25 1.84109,0 1.84109,0.77935 0,4 l -1.42913,2.5 -0.0354,-3.25 z m -12.49653,0.81296 c -0.3911,-0.63281 -0.24118,-1.71677 0.33315,-2.4088 0.57433,-0.69203 0.78559,-2.24732 0.46946,-3.4562 -0.33861,-1.29485 -0.11598,-2.19796 0.54185,-2.19796 1.30855,0 1.47797,5.8814 0.22632,7.85676 -0.62503,0.98642 -1.05379,1.0427 -1.57078,0.2062 z m -11.53891,-3.56296 c 0,-0.825 0.43588,-1.5 0.96862,-1.5 0.53273,0 0.70959,0.675 0.39301,1.5 -0.31659,0.825 -0.75246,1.5 -0.96862,1.5 -0.21615,0 -0.39301,-0.675 -0.39301,-1.5 z m -6,-0.94098 c 0,-0.85746 0.45,-1.55902 1,-1.55902 0.55,0 1,0.42344 1,0.94098 0,0.51754 -0.45,1.2191 -1,1.55902 -0.55,0.33992 -1,-0.0835 -1,-0.94098 z m -10.78564,-3.75157 c -4.26343,-1.14591 -3.12899,-3.20162 1.30752,-2.36932 2.22366,0.41716 3.45963,0.2028 3.80653,-0.6602 0.28253,-0.70286 0.54922,-0.30293 0.59264,0.88874 0.0434,1.19166 0.64145,2.36403 1.32895,2.60526 2.34585,0.8231 -3.73995,0.42134 -7.03564,-0.46448 z m -8.21436,-3.92989 c 0,-1.76626 0.24988,-1.91507 1.48899,-0.8867 1.50499,1.24904 1.18445,3.00914 -0.54801,3.00914 -0.51754,0 -0.94098,-0.9551 -0.94098,-2.12244 z m 130.5,-36.42058 c -0.55,-0.15512 -2.2559,-0.55959 -3.7909,-0.89883 -1.53499,-0.33923 -2.54704,-1.01135 -2.249,-1.49359 0.29804,-0.48224 1.44065,-0.64177 2.53913,-0.35451 1.09848,0.28726 3.1072,-0.20499 4.46382,-1.09388 2.99984,-1.96557 3.53695,-2.00675 3.53695,-0.27116 0,1.64531 -3.12411,4.50003 -4.5,4.11197 z m -137.72114,-5.70698 c 0.266,-2.29145 -0.38311,-4.36912 -2.2008,-7.04441 -3.12269,-4.596 -3.1802,-5.31487 -0.48161,-6.02056 2.70545,-0.70749 4.90355,0.15406 4.90355,1.92196 0,0.92534 1.17503,1.39301 3.5,1.39301 3.92011,0 3.97056,0.11438 2.20522,5 -2.17578,6.02154 -3.66942,8 -6.0396,8 -1.965,0 -2.21419,-0.42925 -1.88676,-3.25 z m 122.73082,2.35809 c -2.93725,-0.44761 -4.08446,-1.1359 -4.34706,-2.60809 -0.19621,-1.1 -0.76307,-2.4275 -1.25968,-2.95 -0.49662,-0.5225 -0.90294,-1.50671 -0.90294,-2.18713 0,-1.65938 6.65258,-0.62208 10,1.55924 3.15278,2.05448 7.67906,1.54608 9.05056,-1.01658 1.20767,-2.25656 2.94944,-1.64769 2.94944,1.03104 0,2.67475 -2.71091,4.468 -6.58825,4.35809 -2.3049,-0.0653 -3.41175,0.35782 -3.41175,1.30432 0,0.77056 -0.3375,1.33716 -0.75,1.25911 -0.4125,-0.078 -2.54564,-0.41554 -4.74032,-0.75 z m 6.69032,-9.30809 c -0.66,-0.66 -1.2,-1.92 -1.2,-2.8 0,-0.88 -0.54,-2.14 -1.2,-2.8 -0.93333,-0.93333 -0.92722,-1.47278 0.0275,-2.42752 1.90537,-1.90537 4.61822,0.37857 4.99532,4.20553 0.37209,3.77602 -0.86546,5.57937 -2.62284,3.82199 z m 6.8,-3.35902 c 0,-0.85746 0.45,-1.2809 1,-0.94098 0.55,0.33992 1,1.04148 1,1.55902 0,0.51754 -0.45,0.94098 -1,0.94098 -0.55,0 -1,-0.70156 -1,-1.55902 z m -147,-4.32435 c 0,-0.88865 3.32002,-2.07758 5.87244,-2.10298 1.10667,-0.011 1.13137,0.27683 0.12756,1.48635 -1.33321,1.60642 -6,2.08603 -6,0.61663 z m 24,-1.69996 c 0,-0.87084 0.53437,-1.40521 1.1875,-1.1875 1.85422,0.61807 2.16176,2.77083 0.39583,2.77083 -0.87083,0 -1.58333,-0.7125 -1.58333,-1.58333 z m 97.00836,-2.39034 c -1.15965,-0.73316 -1.22473,-1.20996 -0.29238,-2.14231 0.93234,-0.93234 1.54009,-0.91639 2.73063,0.0717 2.58855,2.1483 0.49575,3.92558 -2.43825,2.07064 z m 30.75422,-4.23859 c -0.63874,-1.91621 0.37323,-5.82184 1.35177,-5.21707 1.17282,0.72484 1.1453,6.42933 -0.031,6.42933 -0.50416,0 -1.0985,-0.54552 -1.32075,-1.21226 z M 458.5348,549.15887 c 0,-0.55 0.45,-1 1,-1 0.55,0 1,0.45 1,1 0,0.55 -0.45,1 -1,1 -0.55,0 -1,-0.45 -1,-1 z m -92.45621,-31.7077 c -1.07592,-0.2851 -4.37967,-2.49251 -7.34167,-4.90534 -2.962,-2.41283 -6.24421,-4.38696 -7.29379,-4.38696 -1.04958,0 -1.90833,-0.45 -1.90833,-1 0,-0.55 0.64234,-1 1.42742,-1 0.78508,0 2.39424,-1.2375 3.5759,-2.75 2.88508,-3.69282 8.87177,-7.23858 12.23228,-7.24488 2.40627,-0.005 2.8711,0.53299 3.8611,4.46464 1.3588,5.39627 3.09912,7.20414 4.87506,5.06427 1.42837,-1.72108 1.69281,-5.25482 0.5825,-7.78403 -1.11653,-2.54338 2.92238,-2.33528 4.72873,0.24364 1.65763,2.3666 2.71701,1.64126 2.71701,-1.86031 0,-1.97037 0.26667,-2.26666 1.2,-1.33333 1.78092,1.78092 4.8,1.46884 4.8,-0.49617 0,-1.27998 0.83758,-0.88435 3.41359,1.61242 1.87748,1.81972 3.89733,3.00963 4.48855,2.64423 0.68675,-0.42443 0.83582,-0.0412 0.4128,1.06119 -0.53581,1.39629 -0.29511,1.57537 1.26145,0.93849 4.55508,-1.86376 5.42361,-1.82724 5.42361,0.22805 0,1.79667 0.47264,1.96112 4.25,1.47878 l 4.25,-0.54271 -2.42431,2.63786 c -3.08604,3.35787 -6.25004,3.36302 -13.54763,0.0221 -4.22586,-1.93466 -6.64947,-2.46392 -9.30762,-2.03256 -2.022,0.32813 -4.16838,0.10652 -4.90721,-0.50666 -1.02566,-0.85125 -1.31323,-0.53391 -1.31323,1.4492 0,1.39651 0.50971,2.70902 1.1327,2.91668 3.01819,1.00606 -4.61126,10.77902 -8.43339,10.80275 -1.20962,0.008 -3.09931,0.18992 -4.19931,0.40534 -1.1,0.21543 -2.88029,0.15842 -3.95621,-0.12669 z m -6.54379,-13.7923 c 0,-0.825 -0.45,-1.5 -1,-1.5 -0.55,0 -1,0.675 -1,1.5 0,0.825 0.45,1.5 1,1.5 0.55,0 1,-0.675 1,-1.5 z m 36.75,-7.07696 c -0.4125,-0.416 -0.75,-1.67137 -0.75,-2.78971 0,-1.47178 0.30207,-1.73126 1.09378,-0.93955 0.60158,0.60158 0.93908,1.85695 0.75,2.78971 -0.18908,0.93276 -0.68128,1.35556 -1.09378,0.93955 z m 11,-1.68583 c -3.19647,-0.79774 -3.75,-1.34149 -3.75,-3.68374 0,-1.86143 -0.72582,-3.09789 -2.25,-3.83298 -2.19419,-1.05821 -2.17988,-1.08681 0.57692,-1.15281 1.86825,-0.0447 3.8443,0.94969 5.82693,2.93232 1.65,1.65 3.64038,3 4.42307,3 1.75732,0 1.84843,1.42879 0.17308,2.7141 -0.78839,0.60485 -2.63482,0.61338 -5,0.0231 z"
         id="path3052"
         inkscape:connector-curvature="0" />
      <path
         sodipodi:nodetypes="ccccc"
         inkscape:connector-curvature="0"
         id="rect3043"
         d="m 424.22549,504.187 12.56087,-10.66489 19.43379,21.80377 -14.45684,13.27186 z"
         style="fill:#800000;fill-rule:evenodd;stroke:none" />
      <path
         sodipodi:nodetypes="ccccc"
         inkscape:connector-curvature="0"
         id="rect3043-4"
         d="m 425.52897,504.54892 11.63043,-9.36781 17.99425,19.15196 -13.38596,11.65771 z"
         style="fill:#000000;fill-rule:evenodd;stroke:none" />
    </g>
    <g
       transform="matrix(0,0.9978479,-1.0021567,0,0,0)"
       style="font-size:59.80846024px;font-style:normal;font-variant:normal;font-weight:500;font-stretch:normal;line-height:125%;letter-spacing:0px;word-spacing:0px;fill:#bf4941;fill-opacity:1;stroke:none;font-family:ContextNavigation;-inkscape-font-specification:ContextNavigation Medium"
       id="text3082"
       inkscape:export-xdpi="90"
       inkscape:export-ydpi="90">
      <path
         d="m 337.84088,-279.33157 14.30964,0 9.92914,23.33347 9.98754,-23.33347 14.28044,0 0,43.6006 -10.63002,0 0,-31.89006 -10.04595,23.5087 -7.12562,0 -10.04595,-23.5087 0,31.89006 -10.65922,0 0,-43.6006"
         id="path3087"
         inkscape:connector-curvature="0" />
      <path
         d="m 423.87394,-243.67428 -17.58041,0 -2.77432,7.94331 -11.3017,0 16.14946,-43.6006 13.40433,0 16.14946,43.6006 -11.3017,0 -2.74512,-7.94331 m -14.77689,-8.08933 11.94417,0 -5.95748,-17.34679 -5.98669,17.34679"
         id="path3089"
         inkscape:connector-curvature="0" />
      <path
         d="m 467.971,-257.98392 15.12734,22.25295 -11.71055,0 -10.19196,-14.89371 -10.10436,14.89371 -11.76895,0 15.12733,-22.25295 -14.54327,-21.34765 11.73975,0 9.5495,14.04681 9.52029,-14.04681 11.79815,0 -14.54327,21.34765"
         id="path3091"
         inkscape:connector-curvature="0" />
      <path
         d="m 528.07149,-262.45204 c 1.77165,3e-5 3.115,-0.38935 4.03007,-1.16813 0.91501,-0.77873 1.37252,-1.92739 1.37255,-3.446 -3e-5,-1.49907 -0.45754,-2.638 -1.37255,-3.41679 -0.91507,-0.79819 -2.25842,-1.1973 -4.03007,-1.19734 l -6.22031,0 0,9.22826 6.22031,0 m 0.37965,19.06979 c 2.25836,1e-5 3.95216,-0.47698 5.08138,-1.43096 1.14864,-0.95397 1.72297,-2.39467 1.723,-4.3221 -3e-5,-1.88847 -0.56463,-3.29996 -1.6938,-4.23449 -1.12922,-0.95395 -2.83275,-1.43094 -5.11058,-1.43096 l -6.59996,0 0,11.41851 6.59996,0 m 10.4548,-15.6822 c 2.4141,0.7009 4.28312,1.99558 5.60704,3.88405 1.32384,1.8885 1.98579,4.20529 1.98583,6.95039 -4e-5,4.20529 -1.42127,7.33978 -4.26369,9.40348 -2.8425,2.06371 -7.16459,3.09556 -12.96629,3.09556 l -18.66094,0 0,-43.6006 16.87954,0 c 6.0548,4e-5 10.43529,0.91508 13.1415,2.74511 2.72561,1.83012 4.08843,4.76018 4.08847,8.79021 -4e-5,2.12214 -0.49649,3.93275 -1.48937,5.43182 -0.99295,1.47966 -2.43365,2.57966 -4.32209,3.29998"
         id="path3093"
         inkscape:connector-curvature="0" />
      <path
         d="m 572.13936,-259.99896 c 2.35571,3e-5 4.03977,-0.43802 5.05218,-1.31415 1.03182,-0.87607 1.54775,-2.31677 1.54778,-4.32209 -3e-5,-1.9858 -0.51596,-3.40703 -1.54778,-4.26369 -1.01241,-0.8566 -2.69647,-1.28491 -5.05218,-1.28495 l -4.73094,0 0,11.18488 4.73094,0 m -4.73094,7.7681 0,16.49989 -11.24329,0 0,-43.6006 17.17157,0 c 5.74329,4e-5 9.94857,0.96375 12.61584,2.89113 2.68667,1.92746 4.03003,4.97434 4.03006,9.14065 -3e-5,2.88142 -0.70091,5.24689 -2.10264,7.09641 -1.38232,1.84957 -3.47523,3.21239 -6.27872,4.08847 1.53801,0.35046 2.91057,1.14868 4.11768,2.39467 1.2265,1.22656 2.46277,3.09557 3.70882,5.60705 l 6.1035,12.38222 -11.97337,0 -5.31501,-10.83445 c -1.07082,-2.1805 -2.16107,-3.66987 -3.27078,-4.46811 -1.09028,-0.79821 -2.55044,-1.19732 -4.3805,-1.19733 l -3.18316,0"
         id="path3095"
         inkscape:connector-curvature="0" />
      <path
         d="m 628.64784,-243.67428 -17.58042,0 -2.77432,7.94331 -11.3017,0 16.14946,-43.6006 13.40433,0 16.14946,43.6006 -11.3017,0 -2.74511,-7.94331 m -14.7769,-8.08933 11.94417,0 -5.95748,-17.34679 -5.98669,17.34679"
         id="path3097"
         inkscape:connector-curvature="0" />
      <path
         d="m 646.5787,-279.33157 11.24329,0 0,26.13699 c -2e-5,3.60176 0.58405,6.18139 1.7522,7.73889 1.18758,1.53805 3.115,2.30707 5.78226,2.30707 2.68669,0 4.6141,-0.76902 5.78227,-2.30707 1.18757,-1.5575 1.78137,-4.13713 1.7814,-7.73889 l 0,-26.13699 11.24329,0 0,26.13699 c -4e-5,6.17166 -1.54782,10.76631 -4.64333,13.78399 -3.09559,3.01768 -7.8168,4.52651 -14.16363,4.52651 -6.32741,0 -11.03888,-1.50883 -14.13442,-4.52651 -3.09556,-3.01768 -4.64334,-7.61233 -4.64333,-13.78399 l 0,-26.13699 m 9.6079,-11.85656 6.86279,0 0,7.18402 -6.86279,0 0,-7.18402 m 11.53533,0 6.86278,0 0,7.18402 -6.86278,0 0,-7.18402"
         id="path3099"
         inkscape:connector-curvature="0" />
    </g>
  </g>
  <g
     inkscape:groupmode="layer"
     id="layer2"
     inkscape:label="light"
     sodipodi:insensitive="true"
     style="opacity:1">
    <path
       style="fill:#e6d2ab;fill-opacity:1;stroke:#807500;stroke-width:0.50000000000000000;stroke-linecap:butt;stroke-linejoin:miter;stroke-miterlimit:4;stroke-opacity:1;stroke-dasharray:none"
       d="m 316.6616,346.05061 c -1.74778,-10.95271 1.46137,-12.03849 13.34807,-3.40802 11.8867,8.63047 30.57949,42.52964 45.94727,61.79069 15.36777,19.26105 16.7157,18.60429 23.06508,28.23777 5.37723,8.15851 9.36314,12.57437 13.91607,15.90408 10.85334,7.93742 7.35697,9.84638 8.52004,23.95783 0.93047,11.28928 0.64346,11.01736 2.84002,14.95036 3.42749,6.13702 5.45538,9.32208 6.53203,11.36006 1.49851,2.83651 2.85223,2.2193 5.11203,3.40802 2.2598,1.18872 6.60977,2.42896 8.52004,3.40802 1.91027,0.97906 2.08195,2.14308 3.12402,1.98801 1.04207,-0.15507 1.57309,-0.9246 1.704,-1.98801 0.13091,-1.06341 -0.16587,-0.90778 -1.704,-3.40802 -1.53813,-2.50024 -6.29919,-8.09982 -8.23605,-11.07606 -1.93686,-2.97624 -2.21255,-4.52999 -3.69202,-6.53203 -1.47947,-2.00204 -3.79101,-3.03156 -5.11202,-5.39603 -1.32101,-2.36447 -2.55985,-6.30581 -2.27201,-8.52004 0.28784,-2.21423 2.67365,-2.50335 2.27201,-3.97602 -0.40164,-1.47267 -3.72367,-0.38763 -3.97602,-2.27201 -0.25235,-1.88438 1.76376,-3.8777 4.82802,-4.82803 3.06426,-0.95033 7.56368,1.20763 12.21207,2.27201 4.64839,1.06438 11.05453,1.19185 15.62007,4.26003 4.56554,3.06818 8.08235,8.93737 10.22406,13.34806 2.14171,4.41069 2.24373,9.14212 3.12401,12.21207 0.88028,3.06995 0.95197,4.17856 1.98801,6.24803 1.03604,2.06947 2.56585,3.28372 4.26002,5.96403 1.69417,2.68031 4.05874,5.3368 5.68003,10.22405 1.62129,4.88725 2.91729,12.76199 2.55602,19.0281 -0.36127,6.26611 -1.07949,13.18486 -4.54403,17.89209 -3.83152,5.20583 -6.41747,8.26091 -16.75608,6.81603 -5.62606,-0.78628 -11.576,-5.24004 -15.33608,-4.54402 0.49903,3.94105 1.72942,9.00463 1.70401,12.78006 -0.0254,3.77543 -0.11355,6.45695 -1.42001,9.65605 -2.21286,5.41856 -1.03917,4.68955 -1.98801,10.79206 -1.88229,12.10608 -3.56911,12.33987 -7.66804,14.76807 -3.3447,1.9814 -4.87407,4.66621 -5.68003,10.50805 -0.65338,4.73583 -3.32331,12.18058 -4.26002,16.18809 -1.05487,4.51305 -1.73724,9.3514 -1.09557,12.51566 0.64167,3.16426 2.03292,2.99951 4.78759,5.09242 2.83473,2.15373 6.2537,5.25478 8.52004,6.81604 2.26634,1.56126 2.45829,1.19424 4.82803,2.84001 2.36974,1.64577 10.26294,0.78259 10.35847,7.38404 0.0473,3.26983 1.84685,1.61167 1.671,5.25449 -0.17585,3.64282 0.71679,5.10161 -3.40181,11.37945 -1.34008,2.04264 -45.38256,-10.70878 -46.74588,-7.82048 -2.8799,6.10129 -9.5967,5.44458 -12.67336,4.98296 -8.40227,-1.26067 -7.92747,-3.88688 -9.13273,-15.78443 -1.00914,-9.96157 4.99734,-32.87198 1.90744,-41.52548 -0.61182,-1.71346 -3.29696,-3.54284 -5.21404,1.09495 -2.10798,5.0996 -5.02358,11.59634 -5.98425,21.07769 -0.96067,9.48135 3.95605,27.48154 1.26503,34.35586 -1.06551,2.72188 -5.78904,1.55495 -10.64486,2.33683 -5.61164,0.90359 -8.54269,0.62745 -9.79429,-1.34069 -2.08438,-3.27771 -34.03771,5.04027 -35.36416,3.67775 -1.67644,-1.72203 -3.7798,-3.99632 -3.59061,-7.85095 0.18919,-3.85463 -0.20099,-16.76817 3.07335,-16.4717 10.70141,0.96895 11.97965,-2.23616 14.17924,-6.73361 2.23512,-4.57011 7.26806,-5.91968 8.13494,-11.62477 0.86688,-5.70509 -2.23287,-9.6061 -3.69202,-15.33607 -1.45915,-5.72997 -4.94382,-10.93253 -5.11202,-19.0281 -0.11268,-5.42314 -3.90308,-7.57106 -8.78414,-6.57278 -7.91824,1.61944 -15.59874,2.81826 -18.764,-0.24325 -3.16526,-3.06151 -7.30726,-7.95917 0,-9.37205 2.46422,-0.47646 4.87376,2.53957 5.68003,-0.284 1.03497,-3.62445 1.61895,-8.69796 0.284,-11.92806 -1.33495,-3.2301 -3.83595,-3.68994 -6.53203,-6.24804 -2.69608,-2.5581 -2.22238,-3.23006 -9.65605,-9.08804 -5.91377,-4.66025 -9.39034,-23.73948 -6.53204,-31.24016 2.8583,-7.50068 10.72322,-10.13264 13.06407,-9.65605 1.47718,0.30075 6.05232,-6.60944 15.62008,-9.37205 4.83385,-1.39573 8.59722,-3.33365 11.07605,-4.54402 2.47883,-1.21037 4.14402,-0.72442 3.97602,-2.27201 -0.168,-1.54759 -1.90645,1.94627 -5.25387,-2.23127 -3.34742,-4.17754 -12.05375,-21.5618 -1.56216,-26.45288 5.76072,-2.68559 3.05193,-4.72619 3.40802,-10.22405 0.35609,-5.49786 -2.9997,-13.77271 -4.26002,-21.86811 -1.26032,-8.0954 -1.44637,-13.01329 -3.12402,-26.69613 -1.67765,-13.68284 -5.40737,-43.8954 -7.10004,-55.38028 -1.69267,-11.48488 -0.52423,-2.67936 -2.27201,-13.63207 z"
       inkscape:connector-curvature="0"
       sodipodi:nodetypes="sssssssssssssssssssssssssssssscssssssssssssssssssssssssssssssssssssssssssssssss" />
  </g>
  <g
     inkscape:groupmode="layer"
     id="layer5"
     inkscape:label="bart"
     style="opacity:1">
    <path
       style="fill:#ac9d93;stroke:none"
       d="m 336.77563,508.07213 c -0.48422,-2.91845 0.86503,-6.22168 2.86792,-8.3989 2.42212,-2.63294 6.26428,-4.04837 9.83286,-4.30188 7.55134,-0.53644 11.50193,-2.08775 17.00266,-3.9946 4.80578,-1.66594 9.02846,-4.76748 13.82747,-6.45282 3.81274,-1.33897 7.82727,-2.02288 11.77895,-2.86792 3.31111,-0.70806 6.62921,-1.42507 9.98921,-1.84366 4.66758,-0.58149 10.12117,1.61696 14.08083,-0.92183 1.99335,-1.27806 2.2628,-3.9841 4.01922,-5.76859 0.39629,6.35428 0.43652,7.61484 1.35197,11.84445 0.48913,2.2599 3.87362,7.3007 5.79321,11.13165 1.51659,3.02668 3.45767,6.67962 6.97315,6.62074 0.41294,-0.007 -0.56303,4.65161 0.60635,7.1043 1.38493,2.90478 3.46459,5.56576 2.86792,9.21831 -0.55528,3.39922 -2.01888,6.5885 -3.1752,9.83287 -0.78756,2.20972 -1.26467,4.59984 -2.56064,6.55524 -3.44555,5.19876 -5.16345,2.95707 -7.37465,4.91643 -2.1203,1.87882 -3.87297,4.15574 -5.53099,6.45282 -3.95754,5.48292 -4.19347,2.15043 -5.73584,0.81941 -2.60719,-2.24993 -4.11963,-0.63848 -4.91643,0.8194 -2.24655,4.11044 -3.93178,1.62429 -5.32613,0.51213 -1.52388,-1.21547 -2.25386,-1.3965 -2.66307,0.10243 -0.13607,0.49842 0.14546,2.87015 -1.53639,-0.20485 -0.91865,-1.67961 -2.16719,-0.56395 -3.27762,-0.61456 -2.21103,-0.10077 -2.83989,-1.33203 -4.09703,-2.25336 -4.72491,-3.46277 -4.90433,-2.33125 -6.9726,-0.57676 -0.63562,0.53919 -0.65533,1.57131 -1.54022,2.36729 -0.45734,-0.82083 -0.60231,-1.47223 -0.91034,-2.30266 -0.71313,-1.92257 -0.86666,-1.99921 -2.35195,-0.45134 -0.89859,0.93645 -1.75776,0.39999 -3.58874,-2.00688 -1.02891,-1.35253 -1.82267,-2.32971 -2.35579,-3.68732 -1.26611,-3.22422 -3.91359,-2.39532 -3.98311,0.20868 -0.12399,4.64438 -2.49568,1.66223 -3.59639,1.02043 -1.34272,-0.78291 -2.45849,-1.68986 -3.5849,-2.66307 -1.4989,-1.29504 -2.59889,-2.44323 -3.9831,-0.5083 -1.59922,2.23547 -1.36374,0.85685 -2.06001,-0.004 -1.49082,-1.84283 -2.84982,-3.61035 -4.76471,-5.00737 -0.89024,-0.64949 -1.72426,-1.5939 -1.99539,-2.57213 -0.72425,-2.6131 -0.36831,-1.78566 -3.58489,-3.27762 -3.8127,-1.76846 -7.1338,-5.76036 -4.62065,-10.1478 0.71777,-1.25307 3.37974,-5.37876 -0.19336,-4.08937 -1.18869,0.42895 -2.4012,-0.87217 -2.97035,-2.35579 -0.33999,-0.88626 -1.58586,-1.31693 -1.74123,-2.25337 z"
       id="path3798"
       inkscape:connector-curvature="0"
       sodipodi:nodetypes="cssssssscssssssssssssssssscssssssssssssssssc" />
    <path
       style="fill:#6c5d53;stroke:none"
       d="m 375.91215,502.38495 c -0.0616,-2.37952 6.89308,-3.25098 10.71634,-6.29777 1.02622,-0.81781 3.92721,-2.23328 5.67761,-3.71032 5.24571,-4.42649 7.61844,-0.83128 12.50438,-1.20524 4.08532,-0.31268 7.99669,1.70677 11.60045,0.30131 6.30755,-2.45994 5.49049,-0.33565 5.07498,1.69459 -0.34676,1.69432 -1.41993,3.23512 -3.19122,4.58564 -2.45461,1.87151 -4.87218,2.07104 -7.90997,3.21105 -1.74026,0.65307 -3.63116,0.91434 -5.57424,-0.15066 -2.69205,-1.47551 -5.01998,-0.65882 -8.85128,1.02598 -2.51199,1.10464 -0.5982,2.28948 -8.81162,4.07761 -2.60851,0.56789 -2.97405,-0.75204 -5.48193,-1.66712 -2.11241,-0.77078 -5.69527,0.38282 -5.7535,-1.86507 z"
       id="path3800"
       inkscape:connector-curvature="0"
       sodipodi:nodetypes="sssssssssssss" />
    <path
       style="fill:#483e37;stroke:none"
       d="m 360.88357,522.77919 c 0.52252,-2.00124 1.06493,-4.1326 2.03799,-2.62003 1.92435,2.99133 0.45303,2.95909 -0.51781,2.93166 -1.23369,-0.0349 -1.99488,1.50647 -1.52018,-0.31163 z"
       id="path3802"
       inkscape:connector-curvature="0"
       sodipodi:nodetypes="ssss" />
    <path
       style="opacity:0.57396449999999999;fill:#483e37;stroke:none"
       d="m 360.40661,499.56047 c 1.07823,-2.58688 5.86664,-0.85447 7.87454,1.10074 3.9709,3.86671 -0.11353,3.16833 -2.11681,3.13288 -2.54573,-0.0451 -6.73728,-1.88347 -5.75773,-4.23362 z"
       id="path3802-5"
       inkscape:connector-curvature="0"
       sodipodi:nodetypes="ssss" />
  </g>
  <g
     inkscape:groupmode="layer"
     id="layer3"
     inkscape:label="rot"
     sodipodi:insensitive="true">
    <path
       style="fill:#aa0000;stroke:none"
       d="m 319.38676,346.76391 c -1.12442,-3.46132 -1.11856,-11.19112 7.11442,-4.31947 11.21386,9.35964 35.59658,46.70984 42.83827,57.57649 5.25071,7.87904 36.21892,41.97809 33.84453,43.78305 -12.02968,4.07383 -20.89393,3.3461 -30.35731,5.21574 -10.5774,1.57713 -16.77465,9.62798 -23.71179,13.35356 -3.99161,2.04476 -13.99701,6.57698 -13.34626,2.13958 1.33053,-9.07271 -6.5069,-24.08011 -6.35216,-30.99855 0.3528,-15.77358 -2.67891,-24.79932 -2.91528,-37.45761 -0.26454,-14.1673 -3.51179,-28.00042 -5.84399,-41.92428 -0.41174,-2.45817 -0.50038,-4.99804 -1.27043,-7.36851 z"
       id="path3788"
       inkscape:connector-curvature="0"
       sodipodi:nodetypes="ssscccsssss" />
    <path
       style="fill:#aa0000;stroke:none"
       d="m 331.18493,486.80396 c 1.2008,0.8386 2.94611,3.17796 4.14674,2.33913 1.6557,-1.15676 -0.92864,-3.45371 -1.47084,-5.39934 -0.4786,-1.7174 -2.30023,-3.55973 -3.07379,-2.51662 -0.83139,1.12109 -1.42375,4.30465 0.39789,5.57683 z"
       id="path3790"
       inkscape:connector-curvature="0"
       sodipodi:nodetypes="sssss" />
    <path
       style="fill:#d40000;stroke:none"
       d="m 391.40845,496.19953 c -0.1534,-3.26697 5.78126,-5.66089 9.988,-3.95637 0.87883,0.35609 -1.51519,1.03938 -0.1781,3.14232 1.23139,1.93668 -4.05405,2.13505 -6.25788,1.96213 -1.41305,-0.11087 -3.48554,0.26776 -3.55202,-1.14808 z"
       id="path3795"
       inkscape:connector-curvature="0"
       sodipodi:nodetypes="sssss" />
  </g>
  <g
     inkscape:groupmode="layer"
     id="layer4"
     inkscape:label="dark"
     sodipodi:insensitive="true">
    <path
       style="fill:#000000;stroke:none"
       d="m 339.82254,467.38988 c -1.61315,0.6505 -3.8413,-0.62634 -4.58094,2.49869 -0.89113,3.76507 4.42453,4.3999 9.16188,3.60923 2.69436,-0.44969 5.07079,-1.08892 7.63491,0.8329 5.23385,3.92279 13.51269,6.18697 19.98956,5.27503 4.84244,-0.68182 8.01996,-2.82483 9.85596,-7.35728 3.25569,-8.03717 5.99386,-7.64311 9.99478,-5.83029 10.87162,4.92592 14.56463,4.85435 19.01785,0.27764 4.48139,-4.60566 7.90912,-9.13292 1.94343,-16.24152 -2.88778,-3.44103 -5.09298,-4.33271 -9.57833,-4.58094 -3.16242,-0.17502 -11.87584,1.37719 -15.26981,3.74804 -4.50069,3.14394 -5.40038,3.84172 -11.52176,3.33159 -4.01786,-0.33483 -8.20965,0.40944 -11.93821,1.94343 -4.93966,2.03225 -8.22354,7.0099 -13.04874,9.3007 -3.64049,1.72835 -7.92308,1.68565 -11.66058,3.19278 z"
       id="path3793"
       inkscape:connector-curvature="0"
       sodipodi:nodetypes="sssssssssssssss" />
  </g>
</svg>
